<mxfile host="app.diagrams.net" agent="Mozilla/5.0 (X11; Linux x86_64) AppleWebKit/537.36 (KHTML, like Gecko) Chrome/133.0.0.0 Safari/537.36" version="26.0.11" pages="2">
  <diagram name="PÃ¡gina-1" id="_FE9UyB6TTT_eNrizD04">
    <mxGraphModel dx="1306" dy="766" grid="0" gridSize="10" guides="1" tooltips="1" connect="1" arrows="1" fold="1" page="1" pageScale="1" pageWidth="1169" pageHeight="827" math="0" shadow="0">
      <root>
        <mxCell id="0" />
        <mxCell id="1" parent="0" />
        <mxCell id="JJ_vexFjEVKkK_X-iJId-28" value="" style="rounded=1;whiteSpace=wrap;html=1;fillColor=none;dashed=1;dashPattern=12 12;strokeColor=#001AFF;" parent="1" vertex="1">
          <mxGeometry x="164" y="158" width="910" height="340" as="geometry" />
        </mxCell>
        <mxCell id="JJ_vexFjEVKkK_X-iJId-30" value="" style="rounded=1;whiteSpace=wrap;html=1;fillColor=none;strokeColor=#1100FF;dashed=1;dashPattern=1 4;" parent="1" vertex="1">
          <mxGeometry x="114" y="108" width="980" height="400" as="geometry" />
        </mxCell>
        <mxCell id="JJ_vexFjEVKkK_X-iJId-13" value="" style="rounded=1;whiteSpace=wrap;html=1;strokeColor=#0313FF;fillColor=none;" parent="1" vertex="1">
          <mxGeometry x="214" y="186" width="840" height="290" as="geometry" />
        </mxCell>
        <mxCell id="JJ_vexFjEVKkK_X-iJId-3" value="" style="aspect=fixed;sketch=0;html=1;dashed=0;whitespace=wrap;verticalLabelPosition=bottom;verticalAlign=top;fillColor=#2875E2;strokeColor=#ffffff;points=[[0.005,0.63,0],[0.1,0.2,0],[0.9,0.2,0],[0.5,0,0],[0.995,0.63,0],[0.72,0.99,0],[0.5,1,0],[0.28,0.99,0]];shape=mxgraph.kubernetes.icon2;prIcon=ing" parent="1" vertex="1">
          <mxGeometry x="494.73" y="860" width="50" height="48" as="geometry" />
        </mxCell>
        <mxCell id="JJ_vexFjEVKkK_X-iJId-4" value="" style="aspect=fixed;sketch=0;html=1;dashed=0;whitespace=wrap;verticalLabelPosition=bottom;verticalAlign=top;fillColor=#2875E2;strokeColor=#ffffff;points=[[0.005,0.63,0],[0.1,0.2,0],[0.9,0.2,0],[0.5,0,0],[0.995,0.63,0],[0.72,0.99,0],[0.5,1,0],[0.28,0.99,0]];shape=mxgraph.kubernetes.icon2;prIcon=svc" parent="1" vertex="1">
          <mxGeometry x="644.73" y="850" width="50" height="48" as="geometry" />
        </mxCell>
        <mxCell id="JJ_vexFjEVKkK_X-iJId-5" value="" style="aspect=fixed;sketch=0;html=1;dashed=0;whitespace=wrap;verticalLabelPosition=bottom;verticalAlign=top;fillColor=#2875E2;strokeColor=#ffffff;points=[[0.005,0.63,0],[0.1,0.2,0],[0.9,0.2,0],[0.5,0,0],[0.995,0.63,0],[0.72,0.99,0],[0.5,1,0],[0.28,0.99,0]];shape=mxgraph.kubernetes.icon2;kubernetesLabel=1;prIcon=ns" parent="1" vertex="1">
          <mxGeometry x="360" y="860" width="50" height="48" as="geometry" />
        </mxCell>
        <mxCell id="JJ_vexFjEVKkK_X-iJId-6" value="" style="aspect=fixed;sketch=0;html=1;dashed=0;whitespace=wrap;verticalLabelPosition=bottom;verticalAlign=top;fillColor=#2875E2;strokeColor=#ffffff;points=[[0.005,0.63,0],[0.1,0.2,0],[0.9,0.2,0],[0.5,0,0],[0.995,0.63,0],[0.72,0.99,0],[0.5,1,0],[0.28,0.99,0]];shape=mxgraph.kubernetes.icon2;kubernetesLabel=1;prIcon=vol" parent="1" vertex="1">
          <mxGeometry x="110" y="908" width="50" height="48" as="geometry" />
        </mxCell>
        <mxCell id="JJ_vexFjEVKkK_X-iJId-7" value="Ingress" style="aspect=fixed;sketch=0;html=1;dashed=0;whitespace=wrap;verticalLabelPosition=bottom;verticalAlign=top;fillColor=#2875E2;strokeColor=#ffffff;points=[[0.005,0.63,0],[0.1,0.2,0],[0.9,0.2,0],[0.5,0,0],[0.995,0.63,0],[0.72,0.99,0],[0.5,1,0],[0.28,0.99,0]];shape=mxgraph.kubernetes.icon2;kubernetesLabel=1;prIcon=svc" parent="1" vertex="1">
          <mxGeometry x="497.84000000000003" y="373" width="50" height="48" as="geometry" />
        </mxCell>
        <mxCell id="JJ_vexFjEVKkK_X-iJId-10" value="" style="aspect=fixed;sketch=0;html=1;dashed=0;whitespace=wrap;verticalLabelPosition=bottom;verticalAlign=top;fillColor=#2875E2;strokeColor=#ffffff;points=[[0.005,0.63,0],[0.1,0.2,0],[0.9,0.2,0],[0.5,0,0],[0.995,0.63,0],[0.72,0.99,0],[0.5,1,0],[0.28,0.99,0]];shape=mxgraph.kubernetes.icon2;prIcon=secret" parent="1" vertex="1">
          <mxGeometry x="765" y="870" width="50" height="48" as="geometry" />
        </mxCell>
        <mxCell id="JJ_vexFjEVKkK_X-iJId-11" value="" style="aspect=fixed;sketch=0;html=1;dashed=0;whitespace=wrap;verticalLabelPosition=bottom;verticalAlign=top;fillColor=#2875E2;strokeColor=#ffffff;points=[[0.005,0.63,0],[0.1,0.2,0],[0.9,0.2,0],[0.5,0,0],[0.995,0.63,0],[0.72,0.99,0],[0.5,1,0],[0.28,0.99,0]];shape=mxgraph.kubernetes.icon2;prIcon=pv" parent="1" vertex="1">
          <mxGeometry x="30" y="940" width="50" height="48" as="geometry" />
        </mxCell>
        <mxCell id="JJ_vexFjEVKkK_X-iJId-14" value="Kubernetes" style="sketch=0;html=1;verticalAlign=top;labelPosition=center;verticalLabelPosition=bottom;align=center;spacingTop=-6;fontSize=11;fontStyle=1;fontColor=#999999;shape=image;aspect=fixed;imageAspect=0;image=data:image/svg+xml,PHN2ZyB4bWxucz0iaHR0cDovL3d3dy53My5vcmcvMjAwMC9zdmciIHhtbG5zOnY9Imh0dHBzOi8vdmVjdGEuaW8vbmFubyIgd2lkdGg9IjcwMi44NDYzMTM0NzY1NjI1IiBoZWlnaHQ9IjY4MS45NjcxMDIwNTA3ODEyIiB2aWV3Qm94PSIxMC4wMDEwMjYxNTM1NjQ0NTMgMTAuMDAwOTMzNjQ3MTU1NzYyIDcwMi44NDYzMTM0NzY1NjI1IDY4MS45NjcxMDIwNTA3ODEyIj4mI3hhOwk8c3R5bGUgdHlwZT0idGV4dC9jc3MiPiYjeGE7CS5zdDB7ZmlsbDojMzI2Y2U1O30mI3hhOwkuc3Qxe2ZpbGw6I2ZmZjt9JiN4YTsJPC9zdHlsZT4mI3hhOwk8cGF0aCBjbGFzcz0ic3QwIiBkPSJNMzU4Ljk4NyAxMC4wNmMtNi4yMTMuMzEzLTEyLjMwMSAxLjg1NC0xNy45MDYgNC41MzFMOTYuNzM3IDEzMS4zNDJjLTEyLjgxMSA2LjExOC0yMi4xMTYgMTcuNjg5LTI1LjI4MSAzMS40MzhsLTYwLjI4MSAyNjIuMjVjLTIuODEyIDEyLjIwNy0uNTI0IDI1LjAyNCA2LjM0NCAzNS41MzFhNDYuMzUgNDYuMzUgMCAwIDAgMi42NTYgMy42ODhsMTY5LjEyNSAyMTAuMjgxYzguODY4IDExLjAyMiAyMi4zMTMgMTcuNDQgMzYuNTMxIDE3LjQzOGwyNzEuMjE5LS4wNjJjMTQuMjEyLjAxIDI3LjY1Ny02LjM5NiAzNi41MzEtMTcuNDA2bDE2OS4wNjMtMjEwLjMxM2M4Ljg3My0xMS4wMjggMTIuMTk3LTI1LjQ2NCA5LjAzMS0zOS4yMTlsLTYwLjM3NS0yNjIuMjVjLTMuMTY1LTEzLjc0OC0xMi40Ny0yNS4zMTktMjUuMjgxLTMxLjQzN0wzODEuNjQzIDE0LjU5MmMtNy4wNS0zLjM2OC0xNC44NDEtNC45MjYtMjIuNjU2LTQuNTMxeiIvPiYjeGE7CTxwYXRoIGNsYXNzPSJzdDEgc3QyIiBkPSJNMzYxLjQwOCA5OS4zMDhjLTguMDc3LjAwMS0xNC42MjYgNy4yNzYtMTQuNjI1IDE2LjI1IDAgLjEzOC4wMjguMjY5LjAzMS40MDYtLjAxMiAxLjIxOS0uMDcxIDIuNjg4LS4wMzEgMy43NS4xOTMgNS4xNzYgMS4zMjEgOS4xMzcgMiAxMy45MDYgMS4yMyAxMC4yMDcgMi4yNjEgMTguNjY3IDEuNjI1IDI2LjUzMS0uNjE5IDIuOTY1LTIuODAzIDUuNjc3LTQuNzUgNy41NjNsLS4zNDQgNi4xODhjLTguNzc3LjcyNy0xNy42MTIgMi4wNTktMjYuNDM3IDQuMDYzLTM3Ljk3NSA4LjYyMi03MC42NyAyOC4xODMtOTUuNTYyIDU0LjU5NC0xLjYxNS0xLjEwMi00LjQ0MS0zLjEyOS01LjI4MS0zLjc1LTIuNjExLjM1My01LjI1IDEuMTU4LTguNjg3LS44NDQtNi41NDUtNC40MDYtMTIuNTA2LTEwLjQ4Ny0xOS43MTktMTcuODEyLTMuMzA1LTMuNTA0LTUuNjk4LTYuODQxLTkuNjI1LTEwLjIxOS0uODkyLS43NjctMi4yNTMtMS44MDUtMy4yNS0yLjU5NC0zLjA3LTIuNDQ4LTYuNjkxLTMuNzI0LTEwLjE4Ny0zLjg0NC00LjQ5Ni0uMTU0LTguODI0IDEuNjA0LTExLjY1NiA1LjE1Ni01LjAzNSA2LjMxNS0zLjQyMyAxNS45NjggMy41OTQgMjEuNTYzLjA3MS4wNTcuMTQ3LjEwMS4yMTkuMTU2Ljk2NC43ODIgMi4xNDUgMS43ODMgMy4wMzEgMi40MzggNC4xNjcgMy4wNzcgNy45NzMgNC42NTEgMTIuMTI1IDcuMDk0IDguNzQ3IDUuNDAyIDE1Ljk5OCA5Ljg4MSAyMS43NSAxNS4yODEgMi4yNDYgMi4zOTQgMi42MzkgNi42MTMgMi45MzggOC40MzhsNC42ODggNC4xODhjLTI1LjA5MyAzNy43NjQtMzYuNzA3IDg0LjQwOS0yOS44NDQgMTMxLjkzOGwtNi4xMjUgMS43ODFjLTEuNjE0IDIuMDg1LTMuODk1IDUuMzY1LTYuMjgxIDYuMzQ0LTcuNTI1IDIuMzctMTUuOTk0IDMuMjQxLTI2LjIxOSA0LjMxMy00LjguMzk5LTguOTQyLjE2MS0xNC4wMzEgMS4xMjUtMS4xMi4yMTItMi42ODEuNjE5LTMuOTA2LjkwNi0uMDQzLjAwOS0uMDgyLjAyMi0uMTI1LjAzMS0uMDY3LjAxNS0uMTU1LjA0OC0uMjE5LjA2My04LjYyIDIuMDgzLTE0LjE1OCAxMC4wMDYtMTIuMzc1IDE3LjgxM3MxMC4yMDMgMTIuNTU3IDE4Ljg3NSAxMC42ODhjLjA2My0uMDE0LjE1NC0uMDE3LjIxOS0uMDMxLjA5OC0uMDIyLjE4NC0uMDcuMjgxLS4wOTQgMS4yMDktLjI2NSAyLjcyNC0uNTYxIDMuNzgxLS44NDQgNS4wMDMtMS4zNCA4LjYyNy0zLjMwOCAxMy4xMjUtNS4wMzEgOS42NzctMy40NzEgMTcuNjkyLTYuMzcgMjUuNS03LjUgMy4yNjEtLjI1NSA2LjY5NyAyLjAxMiA4LjQwNiAyLjk2OWw2LjM3NS0xLjA5NGMxNC42NyA0NS40ODMgNDUuNDE0IDgyLjI0NSA4NC4zNDQgMTA1LjMxMmwtMi42NTYgNi4zNzVjLjk1NyAyLjQ3NSAyLjAxMyA1LjgyNSAxLjMgOC4yNjktMi44MzkgNy4zNjEtNy43MDEgMTUuMTMxLTEzLjIzOCAyMy43OTMtMi42ODEgNC4wMDItNS40MjUgNy4xMDgtNy44NDQgMTEuNjg4LS41NzkgMS4wOTYtMS4zMTYgMi43NzktMS44NzUgMy45MzgtMy43NTkgOC4wNDItMS4wMDIgMTcuMzA1IDYuMjE5IDIwLjc4MSA3LjI2NiAzLjQ5OCAxNi4yODQtLjE5MSAyMC4xODctOC4yNS4wMDYtLjAxMS4wMjYtLjAyLjAzMS0uMDMxcy0uMDA0LS4wMjMgMC0uMDMxYy41NTYtMS4xNDMgMS4zNDQtMi42NDQgMS44MTMtMy43MTkgMi4wNzItNC43NDcgMi43NjItOC44MTUgNC4yMTktMTMuNDA2IDMuODctOS43MiA1Ljk5Ni0xOS45MTkgMTEuMzIzLTI2LjI3NCAxLjQ1OS0xLjc0IDMuODM3LTIuNDA5IDYuMzAyLTMuMDdsMy4zMTMtNmMzMy45MzggMTMuMDI3IDcxLjkyNyAxNi41MjIgMTA5Ljg3NSA3LjkwNmExODkuNzcgMTg5Ljc3IDAgMCAwIDI1LjA5NC03LjU2MmwzLjEyNSA1LjYyNWMyLjUwNi44MTUgNS4yNCAxLjIzNiA3LjQ2OSA0LjUzMSAzLjk4NSA2LjgwOSA2LjcxMSAxNC44NjQgMTAuMDMxIDI0LjU5NCAxLjQ1NyA0LjU5MSAyLjE3OCA4LjY1OSA0LjI1IDEzLjQwNi40NzIgMS4wODIgMS4yNTYgMi42MDUgMS44MTMgMy43NSAzLjg5NSA4LjA4NSAxMi45NDIgMTEuNzg3IDIwLjIxOSA4LjI4MSA3LjIxOS0zLjQ3OCA5Ljk4LTEyLjc0IDYuMjE5LTIwLjc4MWwtMS45MDYtMy45MzdjLTIuNDE5LTQuNTgtNS4xNjMtNy42NTQtNy44NDQtMTEuNjU2LTUuNTM3LTguNjYyLTEwLjEzLTE1Ljg1OC0xMi45NjktMjMuMjE5LTEuMTg3LTMuNzk3LjItNi4xNTggMS4xMjUtOC42MjUtLjU1NC0uNjM1LTEuNzM5LTQuMjItMi40MzctNS45MDYgNDAuNDU3LTIzLjg4OCA3MC4yOTktNjIuMDIxIDg0LjMxMy0xMDYuMDYyIDEuODkyLjI5NyA1LjE4Mi44NzkgNi4yNSAxLjA5NCAyLjItMS40NTEgNC4yMjItMy4zNDQgOC4xODgtMy4wMzEgNy44MDggMS4xMjkgMTUuODIzIDQuMDMgMjUuNSA3LjUgNC40OTggMS43MjMgOC4xMjIgMy43MjMgMTMuMTI1IDUuMDYzIDEuMDU3LjI4MyAyLjU3Mi41NDcgMy43ODEuODEzLjA5Ny4wMjQuMTgzLjA3MS4yODEuMDk0LjA2NS4wMTUuMTU2LjAxNy4yMTkuMDMxIDguNjcyIDEuODY3IDE3LjA5NC0yLjg3OSAxOC44NzUtMTAuNjg3cy0zLjc1NC0xNS43MzItMTIuMzc1LTE3LjgxMmMtMS4yNTQtLjI4NS0zLjAzMi0uNzY5LTQuMjUtMS01LjA4OS0uOTY0LTkuMjMxLS43MjYtMTQuMDMxLTEuMTI1LTEwLjIyNS0xLjA3MS0xOC42OTMtMS45NDMtMjYuMjE5LTQuMzEyLTMuMDY4LTEuMTktNS4yNTEtNC44NDEtNi4zMTMtNi4zNDRsLTUuOTA2LTEuNzE5YzMuMDYyLTIyLjE1NCAyLjIzNy00NS4yMTEtMy4wNjItNjguMjgxLTUuMzQ4LTIzLjI4NS0xNC44LTQ0LjU4MS0yNy40MDYtNjMuMzQ0bDUuMTg4LTQuNjU2Yy4yMzctMi42MjQuMDMzLTUuMzc2IDIuNzUtOC4yODEgNS43NTEtNS40MDEgMTMuMDAzLTkuODc5IDIxLjc1LTE1LjI4MSA0LjE1Mi0yLjQ0MyA3Ljk5LTQuMDE3IDEyLjE1Ni03LjA5NC45NDItLjY5NiAyLjIyOS0xLjc5OCAzLjIxOS0yLjU5NCA3LjAxNS01LjU5NiA4LjYzMS0xNS4yNDggMy41OTQtMjEuNTYycy0xNC43OTctNi45MDktMjEuODEyLTEuMzEyYy0uOTk5Ljc5MS0yLjM1NCAxLjgyMy0zLjI1IDIuNTk0LTMuOTI3IDMuMzc4LTYuMzUxIDYuNzE0LTkuNjU2IDEwLjIxOS03LjIxMiA3LjMyNi0xMy4xNzQgMTMuNDM4LTE5LjcxOSAxNy44NDQtMi44MzYgMS42NTEtNi45OSAxLjA4LTguODc1Ljk2OWwtNS41NjIgMy45NjljLTMxLjcxOS0zMy4yNjEtNzQuOTA1LTU0LjUyNS0xMjEuNDA2LTU4LjY1NmwtLjM0NC02LjUzMWMtMS45MDQtMS44MjItNC4yMDMtMy4zNzctNC43ODEtNy4zMTItLjYzNi03Ljg2NC40MjYtMTYuMzI1IDEuNjU2LTI2LjUzMS42NzktNC43NjkgMS44MDctOC43MyAyLTEzLjkwNi4wNDQtMS4xNzctLjAyNi0yLjg4NC0uMDMxLTQuMTU2LS4wMDEtOC45NzQtNi41NDgtMTYuMjUxLTE0LjYyNS0xNi4yNXptLTE4LjMxMiAxMTMuNDM4bC00LjM0NCA3Ni43MTktLjMxMi4xNTZjLS4yOTEgNi44NjMtNS45NCAxMi4zNDQtMTIuODc1IDEyLjM0NGExMi44MiAxMi44MiAwIDAgMS03LjU5NC0yLjQ2OWwtLjEyNS4wNjMtNjIuOTA2LTQ0LjU5NGMxOS4zMzQtMTkuMDExIDQ0LjA2My0zMy4wNiA3Mi41NjItMzkuNTMxIDUuMjA2LTEuMTgyIDEwLjQxLTIuMDU5IDE1LjU5NC0yLjY4N3ptMzYuNjU2IDBjMzMuMjczIDQuMDkyIDY0LjA0NSAxOS4xNTkgODcuNjI1IDQyLjI1bC02Mi41IDQ0LjMxMy0uMjE5LS4wOTRhMTIuOTEgMTIuOTEgMCAwIDEtMTcuNjg3LTIuMzc1Yy0xLjc3MS0yLjIyMS0yLjcwMS00LjgzMi0yLjgxMi03LjQ2OWwtLjA2Mi0uMDMxek0yMzIuMTI2IDI4My42Mmw1Ny40MzcgNTEuMzc1LS4wNjIuMzEzYTEyLjg4IDEyLjg4IDAgMCAxIDEuNjI1IDE3Ljc1IDEyLjg5IDEyLjg5IDAgMCAxLTYuNjg3IDQuNDA2bC0uMDYyLjI1LTczLjYyNSAyMS4yNWMtMy43NDctMzQuMjY1IDQuMzI5LTY3LjU3NCAyMS4zNzUtOTUuMzQ0em0yNTguMTU2LjAzMWM4LjUzNCAxMy44MzMgMTQuOTk3IDI5LjI4MiAxOC44NDQgNDYuMDMxIDMuODAxIDE2LjU0OCA0Ljc1NSAzMy4wNjcgMy4xODggNDkuMDMxbC03NC0yMS4zMTItLjA2Mi0uMzEyYy02LjYyNy0xLjgxMS0xMC42OTktOC41NTItOS4xNTYtMTUuMzEyLjYzMi0yLjc3IDIuMTAyLTUuMTEzIDQuMDk0LTYuODQ0bC0uMDMxLS4xNTYgNTcuMTI1LTUxLjEyNXptLTE0MC42NTYgNTUuMzEzaDIzLjUzMWwxNC42MjUgMTguMjgxLTUuMjUgMjIuODEzLTIxLjEyNSAxMC4xNTYtMjEuMTg3LTEwLjE4Ny01LjI1LTIyLjgxMnptNzUuNDM4IDYyLjU2M2ExMi44MyAxMi44MyAwIDAgMSAyLjk2OS4yMTlsLjEyNS0uMTU2IDc2LjE1NiAxMi44NzVjLTExLjE0NiAzMS4zMTMtMzIuNDczIDU4LjQ0LTYwLjk2OSA3Ni41OTRsLTI5LjU2Mi03MS40MDYuMDk0LS4xMjVjLTIuNzE2LTYuMzEuMDAyLTEzLjcxIDYuMjUtMTYuNzE5IDEuNi0uNzcgMy4yNzEtMS4xOTcgNC45MzgtMS4yODF6bS0xMjcuOTA2LjMxM2ExMi45IDEyLjkgMCAwIDEgMTIuMzc1IDEwLjAzMSAxMi43NyAxMi43NyAwIDAgMS0uNzE5IDcuOTM4bC4yMTkuMjgxLTI5LjI1IDcwLjY4OGMtMjcuMzQ3LTE3LjU0OS00OS4xMjktNDMuODI0LTYwLjc4MS03Ni4wNjJsNzUuNS0xMi44MTIuMTI1LjE1NmMuODQ1LS4xNTUgMS43MDEtLjIzIDIuNTMxLS4yMTl6bTYzLjc4MSAzMC45NjljMi4wMjQtLjA3NCA0LjA3OS4zNDEgNi4wMzEgMS4yODEgMi41NiAxLjIzMyA0LjUzNyAzLjE3MyA1Ljc4MSA1LjVoLjI4MWwzNy4yMTkgNjcuMjVjLTQuODMgMS42MTktOS43OTYgMy4wMDMtMTQuODc1IDQuMTU2LTI4LjQ2NSA2LjQ2My01Ni44MzkgNC41MDUtODIuNTMxLTQuMjVsMzcuMTI1LTY3LjEyNWguMDYzYTEyLjkxIDEyLjkxIDAgMCAxIDEwLjkwNi02LjgxMnoiIHN0cm9rZT0ibm9uZSIgc3Ryb2tlLXdpZHRoPSIuMjUiLz4mI3hhOzwvc3ZnPg==;" parent="1" vertex="1">
          <mxGeometry x="694" y="166" width="42" height="40" as="geometry" />
        </mxCell>
        <mxCell id="JJ_vexFjEVKkK_X-iJId-15" value="dhcpproxy" style="aspect=fixed;sketch=0;html=1;dashed=0;whitespace=wrap;verticalLabelPosition=bottom;verticalAlign=top;fillColor=#2875E2;strokeColor=#ffffff;points=[[0.005,0.63,0],[0.1,0.2,0],[0.9,0.2,0],[0.5,0,0],[0.995,0.63,0],[0.72,0.99,0],[0.5,1,0],[0.28,0.99,0]];shape=mxgraph.kubernetes.icon2;kubernetesLabel=1;prIcon=pod" parent="1" vertex="1">
          <mxGeometry x="544" y="266" width="50" height="48" as="geometry" />
        </mxCell>
        <mxCell id="JJ_vexFjEVKkK_X-iJId-16" value="iperf-pod-pro" style="aspect=fixed;sketch=0;html=1;dashed=0;whitespace=wrap;verticalLabelPosition=bottom;verticalAlign=top;fillColor=#2875E2;strokeColor=#ffffff;points=[[0.005,0.63,0],[0.1,0.2,0],[0.9,0.2,0],[0.5,0,0],[0.995,0.63,0],[0.72,0.99,0],[0.5,1,0],[0.28,0.99,0]];shape=mxgraph.kubernetes.icon2;kubernetesLabel=1;prIcon=pod" parent="1" vertex="1">
          <mxGeometry x="474" y="266" width="50" height="48" as="geometry" />
        </mxCell>
        <mxCell id="JJ_vexFjEVKkK_X-iJId-17" value="iperf-0" style="aspect=fixed;sketch=0;html=1;dashed=0;whitespace=wrap;verticalLabelPosition=bottom;verticalAlign=top;fillColor=#2875E2;strokeColor=#ffffff;points=[[0.005,0.63,0],[0.1,0.2,0],[0.9,0.2,0],[0.5,0,0],[0.995,0.63,0],[0.72,0.99,0],[0.5,1,0],[0.28,0.99,0]];shape=mxgraph.kubernetes.icon2;kubernetesLabel=1;prIcon=pod" parent="1" vertex="1">
          <mxGeometry x="394" y="266" width="50" height="48" as="geometry" />
        </mxCell>
        <mxCell id="JJ_vexFjEVKkK_X-iJId-18" value="Cluster Mysql" style="outlineConnect=0;dashed=0;verticalLabelPosition=bottom;verticalAlign=top;align=center;html=1;shape=mxgraph.aws3.mysql_db_instance;fillColor=#2E73B8;gradientColor=none;" parent="1" vertex="1">
          <mxGeometry x="634" y="274" width="40" height="40" as="geometry" />
        </mxCell>
        <mxCell id="JJ_vexFjEVKkK_X-iJId-19" value="Cluster Mongo DB" style="shape=image;verticalLabelPosition=bottom;labelBackgroundColor=default;verticalAlign=top;aspect=fixed;imageAspect=0;image=https://5.imimg.com/data5/TO/HX/UH/SELLER-5605719/mongo-db-services-500x500.JPG;" parent="1" vertex="1">
          <mxGeometry x="729" y="271" width="49.64" height="42.99" as="geometry" />
        </mxCell>
        <mxCell id="JJ_vexFjEVKkK_X-iJId-21" value="Centreon" style="image;aspect=fixed;perimeter=ellipsePerimeter;html=1;align=center;shadow=0;dashed=0;spacingTop=3;image=img/lib/active_directory/generic_server.svg;" parent="1" vertex="1">
          <mxGeometry x="314" y="548" width="28.000000000000004" height="50" as="geometry" />
        </mxCell>
        <mxCell id="JJ_vexFjEVKkK_X-iJId-22" value="JUMP1&lt;div&gt;JUMP2&lt;/div&gt;" style="image;aspect=fixed;perimeter=ellipsePerimeter;html=1;align=center;shadow=0;dashed=0;spacingTop=3;image=img/lib/active_directory/generic_server.svg;" parent="1" vertex="1">
          <mxGeometry x="224" y="548" width="28.000000000000004" height="50" as="geometry" />
        </mxCell>
        <mxCell id="JJ_vexFjEVKkK_X-iJId-23" value="speedtestpod" style="aspect=fixed;sketch=0;html=1;dashed=0;whitespace=wrap;verticalLabelPosition=bottom;verticalAlign=top;fillColor=#2875E2;strokeColor=#ffffff;points=[[0.005,0.63,0],[0.1,0.2,0],[0.9,0.2,0],[0.5,0,0],[0.995,0.63,0],[0.72,0.99,0],[0.5,1,0],[0.28,0.99,0]];shape=mxgraph.kubernetes.icon2;kubernetesLabel=1;prIcon=pod" parent="1" vertex="1">
          <mxGeometry x="314" y="266" width="50" height="48" as="geometry" />
        </mxCell>
        <mxCell id="JJ_vexFjEVKkK_X-iJId-26" value="phpipam" style="aspect=fixed;sketch=0;html=1;dashed=0;whitespace=wrap;verticalLabelPosition=bottom;verticalAlign=top;fillColor=#2875E2;strokeColor=#ffffff;points=[[0.005,0.63,0],[0.1,0.2,0],[0.9,0.2,0],[0.5,0,0],[0.995,0.63,0],[0.72,0.99,0],[0.5,1,0],[0.28,0.99,0]];shape=mxgraph.kubernetes.icon2;kubernetesLabel=1;prIcon=pod" parent="1" vertex="1">
          <mxGeometry x="234" y="266" width="50" height="48" as="geometry" />
        </mxCell>
        <mxCell id="JJ_vexFjEVKkK_X-iJId-27" value="Centreon NMS" style="image;aspect=fixed;perimeter=ellipsePerimeter;html=1;align=center;shadow=0;dashed=0;spacingTop=3;image=img/lib/active_directory/generic_server.svg;" parent="1" vertex="1">
          <mxGeometry x="404" y="548" width="28.000000000000004" height="50" as="geometry" />
        </mxCell>
        <mxCell id="JJ_vexFjEVKkK_X-iJId-29" value="arg012009&lt;div&gt;arg012019&lt;/div&gt;&lt;div&gt;arg012024&lt;/div&gt;&lt;div&gt;arg012025&lt;/div&gt;&lt;div&gt;arg012028&lt;/div&gt;&lt;div&gt;arg012029&lt;/div&gt;&lt;div&gt;arg012030&lt;/div&gt;&lt;div&gt;arg012036&lt;/div&gt;&lt;div&gt;arg013003&lt;/div&gt;&lt;div&gt;arg013004&lt;/div&gt;&lt;div&gt;arg042038&lt;/div&gt;&lt;div&gt;&lt;br&gt;&lt;/div&gt;" style="aspect=fixed;sketch=0;html=1;dashed=0;whitespace=wrap;verticalLabelPosition=bottom;verticalAlign=top;fillColor=#2875E2;strokeColor=#ffffff;points=[[0.005,0.63,0],[0.1,0.2,0],[0.9,0.2,0],[0.5,0,0],[0.995,0.63,0],[0.72,0.99,0],[0.5,1,0],[0.28,0.99,0]];shape=mxgraph.kubernetes.icon2;kubernetesLabel=1;prIcon=node" parent="1" vertex="1">
          <mxGeometry x="144" y="188" width="50" height="48" as="geometry" />
        </mxCell>
        <mxCell id="JJ_vexFjEVKkK_X-iJId-31" value="arg042040" style="aspect=fixed;sketch=0;html=1;dashed=0;whitespace=wrap;verticalLabelPosition=bottom;verticalAlign=top;fillColor=#2875E2;strokeColor=#ffffff;points=[[0.005,0.63,0],[0.1,0.2,0],[0.9,0.2,0],[0.5,0,0],[0.995,0.63,0],[0.72,0.99,0],[0.5,1,0],[0.28,0.99,0]];shape=mxgraph.kubernetes.icon2;kubernetesLabel=1;prIcon=control_plane" parent="1" vertex="1">
          <mxGeometry x="84" y="148" width="50" height="48" as="geometry" />
        </mxCell>
        <mxCell id="JJ_vexFjEVKkK_X-iJId-32" value="Multus" style="shape=image;verticalLabelPosition=bottom;labelBackgroundColor=default;verticalAlign=top;aspect=fixed;imageAspect=0;image=https://dyltqmyl993wv.cloudfront.net/assets/stacks/multus-cni/img/multus-cni-stack-220x234.png;" parent="1" vertex="1">
          <mxGeometry x="559.84" y="369" width="48.89" height="52" as="geometry" />
        </mxCell>
        <mxCell id="JJ_vexFjEVKkK_X-iJId-33" value="Flannel" style="shape=image;verticalLabelPosition=bottom;labelBackgroundColor=default;verticalAlign=top;aspect=fixed;imageAspect=0;image=https://res.cloudinary.com/canonical/image/fetch/f_auto,q_auto,fl_sanitize,c_fill,w_200,h_200/https://api.charmhub.io/api/v1/media/download/charm_ScR3mSfGGzSSuLamu8GFbaRwIGdrJv3x_icon_062db93757d6228a6a06542b1dee2e166bf627f602d881d7c712ea8ec2c3600d.png;" parent="1" vertex="1">
          <mxGeometry x="442.34000000000003" y="379" width="42" height="42" as="geometry" />
        </mxCell>
        <mxCell id="JJ_vexFjEVKkK_X-iJId-38" value="" style="shape=image;verticalLabelPosition=bottom;labelBackgroundColor=default;verticalAlign=top;aspect=fixed;imageAspect=0;image=data:image/png,iVBORw0KGgoAAAANSUhEUgAAAMQAAAD6CAYAAAD+1ui2AAAKoGlDQ1BJQ0MgUHJvZmlsZQAASImVlgdQk9kWgO//pzda6FJCb4J0AkgJPfTebIQkQCghBoKCHVlcgRVFRASUBV2qgmsBxIZYsC2KDawLsggo62JBVFTeDwzB3TfvvXln5uZ8c3LuKXfu/ecAQCGzBIJkWAqAFH66MNjThRYZFU3DjQAiIAEK0AamLHaagBEY6AsQmdd/lw8PADSj7xrPxPr3//+rSHO4aWwAoECEYzlp7BSETyDrBVsgTAcAVYHYtdakC2a4A2FZIVIgwvdmOH6OR2Y4do6/zPqEBrsCgEa6wpNZLGE8AGQVxE7LYMcjcchLETblc3h8hGfqdUxJSeUgfBhhfcRHgPBMfHrsd3Hi/xYzVhyTxYoX81wvs4J346UJklmZ/+dx/G9JSRbN59BFFjlB6BWMaAnkzPqSUn3EzI/1D5hnHmfWf5YTRF5h88xOc42eZw7LzUe8N9nfd57jeB5McZx0Zug8c9PcQ+ZZmBoszhUndGXMM0u4kFeUFCa2J3CZ4vhZCaER85zBC/ef57SkEJ8FH1exXSgKFtfP5Xu6LOT1EPeekvZdvzymeG96QqiXuHfWQv1cPmMhZlqkuDYO1819wSdM7C9IdxHnEiQHiv25yZ5ie1pGiHhvOnIhF/YGis8wkeUdOM/ACwQCGnAH5sACWSCduzZ9pgnXVEGmkBefkE5jIK+LS2Py2SaLaeam5pYAzLzVuavwrm/2DULy+AVbXDUAlgoI9C7YEpFcp5HoVPUFmy5yj6TaADhPZ4uEGXM29MwPBvkKSAJZoATUgBbQB8ZIXdbAHjgjVXqDABAKosBKwAYJIAUIwRqwHmwBuSAf7AR7QBmoBAdBHTgCjoFWcAZcAFfADXAb3AePQT8YAq/AOPgApiAIwkEUiAopQeqQDmQEmUN0yBFyh3yhYCgKioHiIT4kgtZDW6F8qAgqg6qgeuhX6BR0AboG9UAPoQFoFHoLfYZRMBmWhVVhXXgJTIcZsA8cCq+A4+HVcBacA++AS+Fq+DDcAl+Ab8D34X74FTyBAigSSh6lgTJG0VGuqABUNCoOJURtROWhSlDVqCZUO6oLdRfVjxpDfUJj0VQ0DW2Mtkd7ocPQbPRq9EZ0AboMXYduQV9C30UPoMfR3zAUjArGCGOHYWIiMfGYNZhcTAmmBnMScxlzHzOE+YDFYuWxelgbrBc2CpuIXYctwO7HNmM7sD3YQewEDodTwhnhHHABOBYuHZeL24c7jDuPu4Mbwn3Ek/DqeHO8Bz4az8dn40vwDfhz+Dv4YfwUQYqgQ7AjBBA4hExCIeEQoZ1wizBEmCJKE/WIDsRQYiJxC7GU2ES8THxCfEcikTRJtqQgEo+0mVRKOkq6ShogfSLLkA3JruTlZBF5B7mW3EF+SH5HoVB0Kc6UaEo6ZQelnnKR8ozyUYIqYSLBlOBIbJIol2iRuCPxWpIgqSPJkFwpmSVZInlc8pbkmBRBSlfKVYoltVGqXOqUVK/UhDRV2kw6QDpFukC6Qfqa9IgMTkZXxl2GI5Mjc1DmoswgFUXVorpS2dSt1EPUy9QhWaysnixTNlE2X/aIbLfsuJyMnKVcuNxauXK5s3L98ih5XXmmfLJ8ofwx+QfynxVUFRgKXIXtCk0KdxQmFRcpOityFfMUmxXvK35Woim5KyUp7VJqVXqqjFY2VA5SXqN8QPmy8tgi2UX2i9iL8hYdW/RIBVYxVAlWWadyUOWmyoSqmqqnqkB1n+pF1TE1eTVntUS1YrVzaqPqVHVHdZ56sfp59Zc0ORqDlkwrpV2ijWuoaHhpiDSqNLo1pjT1NMM0szWbNZ9qEbXoWnFaxVqdWuPa6tp+2uu1G7Uf6RB06DoJOnt1unQmdfV0I3S36bbqjugp6jH1svQa9Z7oU/Sd9FfrV+vfM8Aa0A2SDPYb3DaEDa0MEwzLDW8ZwUbWRjyj/UY9izGLbRfzF1cv7jUmGzOMM4wbjQdM5E18TbJNWk1eL9FeEr1k15KuJd9MrUyTTQ+ZPjaTMfM2yzZrN3trbmjONi83v2dBsfCw2GTRZvHG0siSa3nAss+KauVntc2q0+qrtY210LrJetRG2ybGpsKmly5LD6QX0K/aYmxdbDfZnrH9ZGdtl253zO4ve2P7JPsG+5Gleku5Sw8tHXTQdGA5VDn0O9IcYxx/dux30nBiOVU7PXfWcuY41zgPMwwYiYzDjNcupi5Cl5Muk652rhtcO9xQbp5ueW7d7jLuYe5l7s88ND3iPRo9xj2tPNd5dnhhvHy8dnn1MlWZbGY9c9zbxnuD9yUfsk+IT5nPc19DX6Fvux/s5+232++Jv44/3781AAQwA3YHPA3UC1wdeDoIGxQYVB70ItgseH1wVwg1ZFVIQ8iHUJfQwtDHYfphorDOcMnw5eH14ZMRbhFFEf2RSyI3RN6IUo7iRbVF46LDo2uiJ5a5L9uzbGi51fLc5Q9W6K1Yu+LaSuWVySvPrpJcxVp1PAYTExHTEPOFFcCqZk3EMmMrYsfZruy97FccZ04xZ5TrwC3iDsc5xBXFjcQ7xO+OH01wSihJGOO58sp4bxK9EisTJ5MCkmqTppMjkptT8CkxKaf4Mvwk/qVUtdS1qT0CI0GuoH+13eo9q8eFPsKaNChtRVpbuiwyFN0U6Yt+EA1kOGaUZ3xcE77m+Frptfy1NzMNM7dnDmd5ZP2yDr2Ova5zvcb6LesHNjA2VG2ENsZu7NyktSln09Bmz811W4hbkrb8lm2aXZT9fmvE1vYc1ZzNOYM/eP7QmCuRK8zt3Wa/rfJH9I+8H7u3W2zft/1bHifver5pfkn+lwJ2wfWfzH4q/Wl6R9yO7kLrwgM7sTv5Ox/sctpVVyRdlFU0uNtvd0sxrTiv+P2eVXuulViWVO4l7hXt7S/1LW3bp71v574vZQll98tdypsrVCq2V0zu5+y/c8D5QFOlamV+5eefeT/3VXlWtVTrVpccxB7MOPjiUPihrl/ov9TXKNfk13yt5df21wXXXaq3qa9vUGkobIQbRY2jh5cfvn3E7Uhbk3FTVbN8c/5RcFR09OWvMb8+OOZzrPM4/XjTCZ0TFSepJ/NaoJbMlvHWhNb+tqi2nlPepzrb7dtPnjY5XXtG40z5WbmzheeI53LOTZ/POj/RIegYuxB/YbBzVefji5EX710KutR92efy1SseVy52MbrOX3W4euaa3bVT1+nXW29Y32i5aXXz5G9Wv53stu5uuWVzq+227e32nqU95+443blw1+3ulXvMezfu+9/veRD2oK93eW9/H6dv5GHywzePMh5NPd78BPMk76nU05JnKs+qfzf4vbnfuv/sgNvAzechzx8Psgdf/ZH2x5ehnBeUFyXD6sP1I+YjZ0Y9Rm+/XPZy6JXg1dRY7p/Sf1a81n994i/nv26OR44PvRG+mX5b8E7pXe17y/edE4ETzz6kfJiazPuo9LHuE/1T1+eIz8NTa77gvpR+Nfja/s3n25PplOlpAUvImh0FUMiC4+IAeFsLACUKmR1uA0BcNjdLzwo0N//PEvhPPDdvz4o1ALUdAIQjODMWlc/MIM4ASCK2QESHOgPYwkK85ufe2Rl9RjTHATCfHazvLi4ZB/+Qufn9u7r/qcFMVEvwT/0vj5gBftio/hgAAABWZVhJZk1NACoAAAAIAAGHaQAEAAAAAQAAABoAAAAAAAOShgAHAAAAEgAAAESgAgAEAAAAAQAAAMSgAwAEAAAAAQAAAPoAAAAAQVNDSUkAAABTY3JlZW5zaG905yTP+QAAAdZpVFh0WE1MOmNvbS5hZG9iZS54bXAAAAAAADx4OnhtcG1ldGEgeG1sbnM6eD0iYWRvYmU6bnM6bWV0YS8iIHg6eG1wdGs9IlhNUCBDb3JlIDYuMC4wIj4KICAgPHJkZjpSREYgeG1sbnM6cmRmPSJodHRwOi8vd3d3LnczLm9yZy8xOTk5LzAyLzIyLXJkZi1zeW50YXgtbnMjIj4KICAgICAgPHJkZjpEZXNjcmlwdGlvbiByZGY6YWJvdXQ9IiIKICAgICAgICAgICAgeG1sbnM6ZXhpZj0iaHR0cDovL25zLmFkb2JlLmNvbS9leGlmLzEuMC8iPgogICAgICAgICA8ZXhpZjpQaXhlbFlEaW1lbnNpb24+MjUwPC9leGlmOlBpeGVsWURpbWVuc2lvbj4KICAgICAgICAgPGV4aWY6UGl4ZWxYRGltZW5zaW9uPjE5NjwvZXhpZjpQaXhlbFhEaW1lbnNpb24+CiAgICAgICAgIDxleGlmOlVzZXJDb21tZW50PlNjcmVlbnNob3Q8L2V4aWY6VXNlckNvbW1lbnQ+CiAgICAgIDwvcmRmOkRlc2NyaXB0aW9uPgogICA8L3JkZjpSREY+CjwveDp4bXBtZXRhPgrsKbBIAAA6iklEQVR4Ae2dB5wURdbAC5EcFlgUEEEEyZIRREUUFROC4cyeOR9mxcAnKoqnnoKKHhhA5VBBVEQRCaIgWZIECZKTZFhglyjw9b/XWmZnO1T39Mz09PT7/XZ7uruquupVvaqX6lWhIxqIEEIMhBjQMXBMiIcQAyEGjmLg2KM/w1/xwMDOXQdEds5+cfDgYbE9a5/I2rlf5Ow5KA4cOKQ9P6h/ct/+Q2LP3r9EyRLHiuLFCovSpYroz4sWLSxKlSwiymUU0688L12qmMgoWzQeVQ3L1DAQEoQHw4ABvXFTtliweKtYvyFH/LF8p1i1Nkdsyzog9u4/rP8dOnxEFD6mkPaX+8FjtN8Sji189Pdfh45ysIe1PMChw7kpKaN40WNEqeLHiPIZRUXVyiVE7ZplxSknZ4g6tcqLyseXDoklF1Wu/xcKZQjnuFu/YbeYM3+zWLhkh5g8Y4tYs2GvOPBX7mBlcDPoIwd55OB3/rWCOSIJBQLib9+Bw6LosYXEceWLitbNM0XThpni1PoVRd1TKhQsIHxiioGQIExRc/QFBDBt5gYxZcYmMXbyFm3GPqIPvqJFjhHFihQSXg/4o192/gtigUD2H8wlEn63a1lBnNmqkmh3xomiRvUM54WmUY6QIEw6e/a8TWLClPXih5/+FKs37hOlSxTWBz8zv58IwKT6+R4f1FYvVhD+ypU+VnTuUFWc2bqKaNGksi6z5Euc5jchQUQMAIjgxwlrxfAx68XuPYdEiWL+WwEiquvqJysIqweyDaxdx/OqiIvaVw+J429spj1BwA59MXypGPbDWpGVHUwiMKMcyV5l7z0simjyx2XnVRbXX1k3reWOtCSIgwcPionTNohBQ5eK6fOz8tihVGOFzAa6m+dy5cjee0jUq1FK3HBlTXF+uxppp7VKK4LAJvDNyKXioyHLxfZdf4kyJQvrM6ObARTkPBAHLCNKg+s6VRfXdK4tqlYpE+Qm57UtLQgCtuiD/y0Qw8du0AVi9PiJWg0kWyJtCWh9eCbvZU9IO4W85wqPTz2lCleqdBNZd+QNVo2L2h4v7r65YeDZqUATBCtC736zxOcj1uvalXipSOUAZ7Dzh1Znv2aZBk6qXFw0qpchTjyhlG6JrlihuChfrrhufdYTaP+wRkvAii0Bq/YOzbq9dfs+sWFTjlizbo9YtjpbbNqRm6aYNoNDNMzk8SaWA1p7duYcEu1OyxRduzQLrPo2kAQBIbz3yTzRf+gqnRDQFnkJctZn9mTwI5DWr1la09RkiupVS+sGsXhbjWnjxs3ZYumKHbp1fNbcrWLu4l269oj6QCDxmAAgjG0au9nxnEri0fuaBo6VChxBfDL4d/Hae4t1QdkrQpArgNTlH1euiGjVtIJmET7ed9bgVWt26i4kM3/bLKbM3CY2bjugryIlixfOY8G8mBwkYdx7Q01x321NAmPPCAxB/DRxjejR6zexMztXWI6Vz5arAPp6ympSt6xm6a0sTm9ZJaX4aGllHzfxTzFrQZa+gpQukctixYojCAv8wCY+06WhuOqyOl7QWlLLSHmCgHV4+qUpYsKMbSKz7LExC8uwQHv2HdLLOad1RXHpBSfpRqsgeJjihDjl1/Xi+7GrxfjpW3XhnpUDFisWYPLAhlO7eknxxgttUlq+SGmC+Oq7P8RLby/QLcoIlm6BDpXalNaNyokrO9YQbU+vFmgdPBPJxGlrxdcjVnlmi2EyydJW6AdvrS3uuaWx2+5Iar6UJAjYgGf//auY+ftOTWgu7HpVgBBy9h3WZ8qbr6ohrrikVkrPbm5HEvgcMWalGPjlSn11xD4TCzsF21q9SgnxWvfWKcVegr+UI4jvRi8X3V+fG9OqIJd4iOmhO+uLSzvUCoxQ6JYoZL4RY5aLDwb9IZat3aNr6NyyU3K16HpPPXHLdQ1l8b6/pgxBwP926zlFd792uypIQqicWVQ89UBj0b5tdd93ULIqOFmTNXr1nS8Wr8qJiTBYLRqeUka8+2q7lGBBU4IglizbLm5+8Bd9bLhRpUIIuCKweSYkBGckFkkYbpUWrBZbdx4UA15vo+3LqOqsAglO7XuCQHB+tOdccVKloo75WikjYKR69uFGoqPGGoXgDgMQRrd/z9InFjeuL/QFFvZH76jja4Hb1wTx/GtTxdAf/hQYwpwChiPcmm+7ukagDEdO8eB1ejwA3h24TDN8HqO7jDgtHxaqTbMKoteLbX0pt/mSIJAX7n9ivJizaKfI0HZ4OQEpJ5zVooLo9kiLwLkWOMFFvNKilerZe5Zr2w/GvMoVi4mB75znO7nCdwQBsu9/cpLYuHW/rkly0qmsCtgTXnisccgeOUGcy7R4Bzz72hzdUu1UtkOuAAb0busr1ayvCALh+baHfxGFChVybD1lfwOrwr//7wzfzToux1tKZGM179n7V/H16D8dewrI1bzvv1v7Rtj2DUGwn/mfD01yjFSpwXj5icaB8KVJCSowqCSrxcPPz3S86UoK2317tvKFGtwXBAExXN9loqhUvogjTRKq1MyMIuKjt9qFsoLBIE30I9xB/vXkBPH7st2OZb8NmlfuG//XLOmsrnsHII+wjTrvirt/cUQMzCpbsg7qm+LHfNExJAaP+iLWYnCAHNT3AoEbDAOcflKFKpqx9F/dZwvU7MmEpK4QEMMND04RJ1cppowDkMwGlVeeaiouuzC0KygjLsEJ6dsu3aYLp960EFIy2d+kEYQbNsmvmokEj7WU+Rwaw9semiCy9/zlyGYBUbzerVlSJrykEIQbAdrPumu3IxQNzay5G7VAyTl6JPBMbb91s0bHB4oFpI13PvyTWLQiWxe4VXEFS9ynx2kJF7QTThBscbzijnE6clRdjBGe2bH23/+c40vrpmonR6aTO/xQF0uPUtjBPZrRqrMWMKzHU20C01ba3fWFSWLspM3KwrZkjf/31lmieeNKkaiL6++EEgRaiM63jNKFLSfEwM61N3q0jSsiElk4xHBft19NFQlyAhjw9nmJrFbcv/Van5li0DdrRAVtZ6MKQBTgYlj/8xK2TyWhWqbbH/pJYE1WJQZmz0vOrRwoYmBSQF9vpWJmgw6bnwiYECTo+kBL3bcMdkgFGCfg4lZNDgFviYCEEcT9XceLdZv2KQtXEMNNl1cXL2qsQ5CAOFG4OdhNCuz5eLP/EgEPHiR45N7mgk1DCM4qAJ6YRJlMEwEJIQg8JCfN2q7smySJgRklSMAsR9A0Fb8fBgJ/Q4YtDhIK9Lawgw43cPpZBdgvv+rPveLZV6aqJI8pTdwJAn30y32XKPONuAdfeWEVETRioJcGa4Ob8xlUgX0H/T9fppo8pdIRhADXfFWigHXCX4otxPGEuBIEeuj7np6ub+5RaQQCFOcVPN81WGySbPunX6/Uo+nJe7srKwQ4ifcgsKtHvN7DPjH5MQmqAPtiHu85R+AEGi+IK0E8+MxkZfUqdgZUq0GTGWTHoVkidhGD3AkwM374aXLdGZzU12laJj82DNH/KoAy4p4nJsVNtoobQfTuN1us0ILzSh27VWOxQLMRCDtDUGHAZ0scGaYkHiAgImBgzAwqsHuODUPSE8GqneAD4sHlPB4QF4Kg8z4cslLJCIOumZipQz/sEChDVGRnscTP0NSoKpNDZD75G7njw0GL5G3grpzNze45eVSAXQNRSnC0Aauu1+A5QaAmfPS56fq+BpXKrt50QHzwn2Bv6hn05RJlfBjhDEIaN40zsHcbvQ7EMzxlB759tmA8qABq6SdemuW5fcJzgnjlrV/1JU2FV0bD8Mx9dRNqmldBtpdpULWiHYkl1Cb1YZX4VCOsIANnavfq1kR37bdrJ+OLcP/E9fUSPCUIWCVVPTt8IFs+UzUGqGonoGotXjR2NNP5uD0EzVAXjUciiF954QlKQjaTDEGuiTboFcTeU3/XhIMMYZXQAtgBcgOxkhCmgg6oWrEnxArMiJwW9L2HnR9rneKVH02jqpBN8LTn3pjnGesUe0/9jZV3+s/XdeYqrBIBq/r0PD2wQrQcKAh92BFUcCLzWF1Rwb73v+CqYCPb/tZLZ+iRxCOfGf0Gt0yuXmmdPCEIhL1+n61QUitihOHUmUS69BohMhHPULWyY8wroPM5EQjrf9ChRvUM3edJxZKta53GbfTEYOcJQRC0iqXLDtAzEyYdC2XQAVXrHO3MN7eqVjP8sEp8MjjYwrVsOz5PLRtmKNknKmrBJp7pGbttImaCQJBGJaiiReEwDc4MSAfo/+lCkVHKu9VB4gwCmzY3S7DRKh3gxadb6WwncqcVgJela/bELGDHTBBPvTRDSZCGl77z2pN9FaXNCsGxvIOFHPXLZqVJws13YBE+HrzQTdaUy8OB8Y/dVVcnCrvKY5t48c35dsks38dEEAiN8LR2QiPUzVKfDqwS2OY0HhUXb8uesXiJChZLbaI2zVhUJSGvYJ1gte1WCcYheydiCWUTE0G80meeZjCyZwtwauv+aNOEIC/ZH8FOMGDICkderU7rTMfz983IpU6zpmz65x5vrocfsmsAE+9rfRcKzABuwDVBYAxRWR0QpBvXKZPw6AlukOFFnrHjVznaJuv2m9g2PhrinUHKbT0SlQ+t5EVtj9dxa/VNJgp8oj77yp162jVBvP3hIqXVgZNjnn2shVUbAvUOV21mqXgDHY9KMh4ObvGuu9vyH72vqdIqwWTx3qClrqz6rghCVXaAnyOkCj4q6QBo3HDVZrAmAiA8bB3pAgjYd2i77Oz2ToB/jkVwY9V3RRCqvv2EnHzo7ibp0l+6i7aTLaKxIgZVI27l8dxBFmsdvc6P7xvqezvQVwkXVn3HBMEsqGJwgoqvuaRqoKLQWXUCqlbsMV4b4qy+yTsMoriXpwvgJo6ng8oqgYzrlKV0TBBsVFExOEHF995yarr0k+6ancjVQSIWg+gXI9enjQqWdt9+w6na+YGHbNWwblhKRwTBLIi7rZ1VGtkhnVYHVK39h66Kq+1BEoDRFULEzTxdgFUCIy9yghWwWsPNOLHqOyKIHyesUfLtR3a444YGVnUN1DuEt9Il4q9ZMkMahrq3P04fmwR4uKZzbSVZgn75Yrg6bhwRhIpvP3aH806vmLBYnGaDJJHP+wxY7MmeB7d1RqtSVJsNvdwo47YuicqHxqnjOZVs7RJMFl/9sE5ZBatMEAjT67fst1Up6j5LN9VPFF6S/h1csbEHJErVatZg+OUPBrkzRpmV6ffnN/6jjtiZc8iymvQLLPwURZd5ZYL4dtQKW2EaX5PK2tFI6bDXQfYCrtiJMMTJ75ld6fiV6/cGOlxNdNsZZ6dUK2krXLMn5cvvVkRnN7xXIgj8Qr7TNmCwM8kKcvYdFlddWt0qSaDeIaxNnrMj4apWMySWLnGMpu1Kr1Xi5qtrCcadFSBcowxScYZUIohf52zWN2nYsQXIDx07nGxVt0C9Q1hLpjAdjUy0f2Mnbwl0uJroNp/frob+yM4TFhlr4rS10dkL3CsRxKif1mgdb50UYmB3E8JOOgCzzZARa+Pq1eoGj7idO9GquPmGn/KgguVAHRz6rAC26dtRq62S6O+sR/nf2VXiChF974pLa9h+MCgJpOu13aqZ6PaiVRn8bfDD1UTi9dILTrK1XMM2jZ5izzbZEgTapcKawGYFLFf8nd2mmlWyQL1TUUEno8FSq+LGsS0Z9fXim2e0qqobi+3YpgplCuuHXFp905YgJkyxP+DjkCbTEMGZ5SsdQNXbN1m4QOs1cGj67JUgNmw7BbYJdvKXqdYRS2wJYvjodbZ88p59h8Ql56fP6qDq7ZssgpAq2HQIVyNxfFH76rZsE1pStt5agSVB4LvEWWB2fDIrBOcrpwPEK7yM17hjlfj0S3WXBa+/n+jyWjSpbPtJnZ3UlD9W7vKWBLFk2Q5RUltmrAC+DWNcumiXcLVW8fa1wlki3knduxPHtkTUK17fgF2veWJJ2xhOxNldsGiraTUsR/vM3+xDqeBxeHH7E0w/EKQXXkXyThROnDq2Jape8fpOpwur6WeNWJWPFm767M2mSSwJ4seJG23lBzZqtGqeuJPmTVuSgBdeRfJOQFX1T9D5RAxXsdAmqk7x/E6jBhVtVwjkiMkzt5lWw5QgQOKWHSrywxFxar3jTD8QpBfvf7Y8qV6tTnEJzwzrJG0mTvOnWvoGdSuKQxoLbwXgBAdU5GMjMCWI5at2aIUbZTn6DPmBkyHTQd2KazXttVMwHMWOP36xt/j9T4N5tG80hlG/1qtRytbZj2MFkI+NwJQgVq62PxMN+eGSNJEfcK32g1erUSdaPZMzotO9xVZl+vldh3NOsN1JB07Wrne4QsxftM3WuxU/8/p1yvsZP57ULdHhZTypdEQhEPK7A9IjFmztmuWUNg3NW2h81rXpCjF/0U5bgfqAptOtUyv4BKEaWCFiDPrqJ3LEguXZlvp3X1U4hsrUPClDMC6tAMF6/mLj6OmGBMGm+Y1b91uVqb/Dw/Ckahm26VI5gWpgBb+3MV3C1XDQip3nK321TYsoaaR9MySIbdv3KB0FVUUzyCHIBBk4+dNPex7c4pq9EngtGw0Ct2X6Nd+ptUpbCtbIEHhn78jaW6AJhgSxacseW/UV8kOLRsFml1gp/bjnoUAvKj7ASpsO4Woa1bdfJdgwtH5jdgHMGRLEn1pCu6NkUcmeeEKpAgUG6QEu1KmoajXrA1SwnwxdYfY6MM+rVCplazJgldi4KadAmw0JYtv2fQUSRj+AT6tetXT040Ddc+JnKqpazTqBQYBnQdDD1aBpspMjEKzXrFdcIVau2WWrYWLLaGWNEoMKuE6rnH+Rau2HwD/6PNhesOUyitm6cGCcW/en4gqxWdMwFSpkvUuOgVCxQolUGw/K9e0/aHGgVgfZcFYJDifEthJUqHRcSVsZmPG9I+tAARQYsky7dh8skDD6AT4jpUsViX4ciHv85afPz/JNeBmvkRr0cDWZFUraskysENtUCWJ3zl/aPmrrboBH48NBhFTZ8+AW90EPV4MpABnBDvZqOz2jocCwR9W4U2GFKKbptYNog0BPzzZDuwjn0YhMtfugh6shIjoaQivI0ULqM94joQBB8BKB2Qr4UAXtoI4gAnp6XB2CDkEPV1O5YjHLLpTGuf0qBGFZ0t8vgziDErKTI3XR1wcdGBCwvZyaGkQooQUms9u+YDTxB7/nHfT26J/X6J6SDJZ0AAifU1ODCGXL2Ct8UAxl5+T32StAECwhR45Ys0wgEAoMGqCfD5Ihzq5/IHxOTQ1iuJrSpY5VGsfROCpAECSwW2qiCwnCPcI0LtLpsjrIPkP4DGK4mpIKJzoRkTI7J7+JwZAg7FSuINNIZSWRnIpXls59B+xXxlRsm1WdUSBweqrZHmOrvEF8V4AgiinocJlF8XYNEhBX6h8dKuunAQWpXSptyV0lgnW0rwqXgwxRrGh+1r8AQYBAO7YBtaudjlelI/yW5o0ebcVtV9cQW7IOBo7grXCNTYJTVKN18lZ5/P4uWp1qVt8imj0tEvLf/f1GRaVqdyRq5EdS6fcj9zYXYz7rINo0z9TDeAaR8I36g01QQwJ0tG+25m2h4o9XulR+e0UBglCxPrOCcHB2EIBQjy0uHCbOvGy4+GTw73qTYJ9YLT5/p60on1FUZ6OCThioYPt/HpxwNfsM3DJUxmsBgiCTikoVo04QlthbH5qgb4ZCkfBm/yXijI7fCBmyhUP9hg+8WLz8ZBM9tAkBroJKGExyWdmH8tquMnj8nAbHPSvlEP1otDXYkCAyyxW1Vb3iPMXe61QGeaQumhYGRIamgqRdD3SfIW5/cFye5qVjh1pi+sjLxd031NIHDZtsggjYYAYNDcZeCZUgGchOKJEiwZAgymsEYWecM9LhRhacCr+NjtSFMIhGuGRltmh/7WjRu9/svJXwnlsai4nDOooOZ1fSBW8j038qtNusjkwMM3/fGYhwNVnZ9meHZ2jW7GgRwZAgymgzpYraKmdPfqOGGaL9+By9+7S55nseGBxEFRk0bLU47x8j8lgJwna++FQb8fUH54qTtfDraKSCxEaxVwL391QG1cgiRi7ihgTBJm07gD8jGEGqAid1smTaAWwEbX34+Zk6GyUP26h7SgUxqO8Fok+P03R2KyjyBYNkxLgNKR2uZuPmbG0LtHXfMuFXOq54ge43zFW1SilbPTyq2fUbCu5JLfAFHz5AGfDl9+pH6sJG4e4OG3XlXT+L1/rMzBsw7dtWF+OHddLli227/rLFmw/Rka9KtJW/VA5Xs3X7XkuBmgajFKpRrWCQDEOCOKFyaVuWiVlzg0EYj3zY9enNjxNWCc7Fo+OdAGwU8sVXP6wT7a/+Xnz13VFPUeSLKcMvE2edVjHl7ReoYD//ZpXAHT4VYdmKLNu+hSBq1ShboHmGBKGySZullfivqQiDh60QHOTtFmC1GDQvvb1AdLhmRN6GfeSL1547K+XtF0wU27XVbuI06wMK3eIv3vk2bdlru4UUua98OUWWCesdOlorYRGk4R2aaoAMMEPTpDDbxwK0HzUt7Nf1XSaK+7uOz1PTSvtFz65NRM6+w7anY8ZSj3jlRXZK1Yjh8xbusCUIAiJXraLIMjHT0dl2wCqRal6Sn3+9RBD41yuAMNBG/bYwS1fTvvfJvDw17WUX1hKTv+0krrr4xJRT0zJhLF6Vk7f6eYWvRJQzZ/Eu2wmPyJSVj1ckCCp9Sg17OYL4mKvW7kpEGz35Buq4r0dvsJ093HwMJQOEwbFbqGlldDz03F0faCm+/+R80bB2mZRS03La6uBhqWWoU5mg4XwyM4xPvjKUIRgQTRpWsI1tw+yIAJMqgDDNzEe94wVSTfvMq3PFVbeNypthCdP+fq/24v1XT9eNQamgpoXIvx+/KaW4AAJ1YzS2AlSuTPhGYEoQKiexsOxMn73FqFxfPiNWK8JwvAGCQ02L+8A/H5okur4wKW9QndmqqhjzRUfx4G119CMH/O4Ggiw5YszKeKPMs/JnzNlka19Cw9S6+XGG3zQdHSonsaB6nTrH+Ggiw68l8WEyYrVKNe2kGVvFxTeNFZHyxS3XNRTjv8p1A9mw7YBt6J9koY5wNbCBqaKCnT5riy1LzOa2alXLGKLUlCBY4lkB7DRNLD+4UPsd2DcMO5MMgPUoV7pwAflCuoF8O6C9II4Qqk4rfCej7qx21GnUT2uS8XnH38QXy06DyJite4rx2SamBEFNWjcpr2Sgm79oq+OKJzIDwjT7hu0QFc86MbAi5YvON/+QJ1/gBvLVRxcJ1LTIFn5jo6h3n/6L4okeT8qWbjVWhUHcTE7seTECa4LQ+CyOHrICjFR+N+DghsC+Yb8ArCawd99fuT/+/o+aduqIzuK6TtV1bZRf9q1DzOu37M8j4HyV9tHNtJkbbCc95Id2bY43rbUlQTRqUNGWt8UWMWG6v1eIfoOW2Z53YYohD18w+9MhPR5vom88QsCOBtS0chtr0wblfKOmZULp93HujsLoOvvlfuyEP21PvmLrc9OGmaZVtiaI+hW0nWLWKwSzB0u8ynJlWos4vpC736hnsoCZHjfxm644Sfz01WWClcAOWNL/+9o54n9vnaVvY92p+fcnU76A3Zwwc3uetsyu/ol+D1v8+7LdtisEHE+LJpVMq2dJEEWKFBHnnW6/SsA2jZ+8zvQjyXwx4LMlMfktxVJ3BjCEwExP4AJm/ugNKXblSzeQ/3vw1LxtrHZ54vXez+FqZs3daNts+gM1MgojM7AkCDKd1/YEWzkC1dzIcevNvpG056xa8/6wnzW8riCIZ0YnQAGGOGZ6MyFO9dtXXVZHTBh2mb7KJCtMDv38+bdr8lxTVOueiHRowez2t8Au4UZjBbYEwfJiF2EDdoQYoX5Tv+K3ZIckK+S4eQf7iEMfMzoBCozkBDflkifZ8gX9zB+ns/oJcLBEjkWetQJY1zNbV7FKImwJguUFHx07/pWlaPTPqy0/lsiXIOm7cRsTJkyzvxoD28XnVBI/Db1UMKPHC6R8Id1AWI0SBVj6sfj7CaZoB2Qy2O3kxD3aZNWiSWXLqtsSBLk7X3iizr9aleQ3tilRZ0xLOYH91aMHXSCe79pGYHBLBEg3EFYjiDER9gsGHaez+ili+PdjV9tyAkxYyMN2MpwSQVxyfg1ltskvp1sOHLo8rpZpCAE1KsC+avZXWwlr8SQQVqO5Y6/Qo4Ekwg0EQx2ntPoB0C6NnbzF9gg0dkj+47KatlVWIggsqVWPK2bLNuEuPGzkCtuPxjsBRIlMY7eEuq0HMzHEgIPeL8M7C/ZVJxuY+YgGghsIq1U83UBQwXJKqx9U7d+MXGqraqVv2BB0hoHdJ7rflAiCTFddWt2WbUKoGfnzxrwN+NEfS9Q9PvwQp9fAsouGp13rirpjHg56fgMZDeTN51vG1c0cmRGlRbLh65FrbD2YkS8u1WQ7O3aJtigTRMcOJ2tR66yFN2ZkWAn2HSQL2CAy6pfNtkuok/rRJmZcZl7iMbFvOlFygpN6RqZl1fr2fxfr0UDi4R+FzMhprbAsyQJVTiB772HR+eKTlaqpTBBoNs5sWt7WlQP+MplaCHz3vXTiYzDhHUl8V+QEZuBUAWZEooGMGHiBvqp5KV8w+fEHy5Is+PTLP2w5ASYz9qaoqr+VCYJG33R1bT18ixUCQFIytRCET/FiE5B0tyCe67gvOwriu6YqMJnJaCBeupmD54+GJMcmgc1rhLabD9d6K8AYd/3lNayS5HtnXVq+pEIXSjB0QXVWwCrR96OFVkni8g6/JVgbiNIt0DZmUs6HwN2CGVaF93T7vUTmww0EN/PIaOaxfB88g2/pLxZLWU7zfjx4oZIHM0Zl2H1VcEQQDIyrO9oL17AsRD5ItAqWyNUQoxuAEDBw0UbOheB8iFjdLdzUIxF5WO0mDb9UdwOB+FkN3QL4xl8skYDc8vmI9Uq2h3anZTrqR0cEQaOv6VxbyQCEI1ivvvMShieW0Mm/7XAlP0g1KgYu9jszkwYdcNzE2fCnIRfqqyHaM7uV3wgnTH7EuUqkCrZ3v1lKqwNKoDtvqm9UbdNnjgmCWfOis4+3nVUSvUoQvNjpJiApJ+DwxcaceLpbmPZAkl/Qn6yGsbiZE+eq/6eJYZHRIn709Tql1aFZvbKOJzfHBEH/3XFjA81ybb/MMkB79p4T9y7Hb+mTr1cr+y0xEzIjnlqnrB4vibhJQZET3CI72s3ciRsIgu1wzW8sESrYt96fK6pWLGLbTLSDt99Q1zZddAJXBIHqsWXDDFsVLKvE0jV74i50jR2/ShA0zU6YlnKCdMsmTlKy3C2iO8Iv96ySYwZf4jjaIJNfvCOGwxZDeHaaJfq5suaQ6saDoJB2UpC1ysikpxCYiTlENGwroHIMVELGxwsIOMwqYUUQzHhs38Tdwo8W5njhJpZyGYAvvzlLTJ6zQw//aYVf+pkz6uaNuzKWT1rmvem+sWLluj22ciLKkRefaOJKVe5qhaDWLLGtG5WzXSVAIssXMYniARAmG+DNOivaLTskBvVeYPVkFcV5EZbSys0c/MMRyBCe6l9RS4lqVyVmK4R5XPmiroiBmrgmCDJ3ufNUsXWn/RkCGHDY6K8Sd5NynYCZ3xKIke4WOLwl0i3bSf1TIS2sB9q3h++oa+lmTj9/MMj7vRKs/j16/aYUpJpV6qkHGrtGa0wEwSqh4s7B7IFBr2fvWa4rapQRIY7Yo5E8JYTAioSFEge3VHO3MGqnX56xuv46opOpGwj9vHL9Xs/tT2+/P0fvUzMuQOKHvj+5aglXsoMsIyaCoJAXn26ltEowaCfM2ObpkoofDdEFJaBG5Vgr3C04RteNUCXLCq/GGMCpETcQMzdzDHUfDvIuqBksMRpEFYPrph0HxXOPNzeuuOLTo6NJMUN0MvTYd1xdQ8lYh776xTfne6aew4+GZVq6ZXOcFcda4W4RQnwxIN3McQMBWJWZoZEjmPi8Yo9feH22EqvEZNhRc/GO1agaM0GAjAfvbqZrcECIFbDkEbXu6ZemWCVTeicPXYdnxGENw1IquGUrNS6FEuEGMu7LS/K5mXsVMZzDLddt2meqMIlE086cQ6L7460jH7n67QlBoIF4pktDXe1mVwtYp0mztuc7sNAuj9F7tjDqcokWDxWHtVhnBqNvhM/UMIAbCKuyjGaOy8TAL1fGFDGcCa//0FVKrBKr04O31vZkj4prO4QRqm5/cJx+dC3Lph1gKeZUHTeGMfxmhv+wQl+Z0t3CbIfnZLynf7r2mC4euquhKzkOZUmH60bqngcqgjSGVkL+eAGeEgR8Y4cbxtgacag47BWDGXWeU0ANFxKCU6wlPj2E4WZDFRPr4hW782kPzWqPty7eyV5xCJ6wTLKyCNhd76mnC1jymdkVysfQ81j3iWZJTJ+HxGCKGl+9cEMMvfvNFnO0454jVelmjcL74PqOVT0jBr7jKUFQILrqmtreYzQ/doAMMGriZvHJYH9HlbZrR/jeGwwgN/T7bIXSCbhwGOzrfuqhVt58/O9SPCcIyn375TPz1HB2tcUX6uX/LvLcmGP33fC9vzCA39TdT04Tlcpb+8bJWmNvevPF3AMs5TMvrnEhCFgnTsOh0ioAEnAUBCkhpB8GEKJvfmC8kuwJdmC10Sp5JTdEYjwuBMEHOAPhorbHKxnskCcw2t360ATPjHaRjQx/+xcDHOZ4+0M/6XYsO40SrYAVhyWPl/E1bgRB5Xt2O0O3FdgZ7EgLMrA2ghy0SCGkBwYe6jZZN76pCNGMI0JSDnirfdyQE1eCQBv08VvtBD4mKkQBUrBM3vlwSBRx63EfFYyGcfrcHbbbQWWVGUf93zjTEwOcLDP6GleC4GMY3vr2bKUTRfTHje7RPC1dnaMThdH78FkwMMBh9j9N3aJkiabFuPI/c3/9uMgNkRiNO0HwMbxO772hpuUGk8hKSaJgh1QIwcMAxDBuyhYl9SqtxzWDwBaJ2NzlqaXarutYIifN3Ka8RGJ4ObFScd1Xya7s8H1qYOD+ruPF1DnblYmBMVD7pFL6vpZEtDChBEGDrrptlNiwZZ+SJZL0IARv1iEfdAjdNUBICgMuGXOX7FJmk9AoldKijBO0OVHeCQlhmSL7EA0BwrOKJZt8sE9btu8Xnf75g2c+9pH1CX/HHwNoDWF/OTZXZaMPNZJKmKEfJnYiTDhBsOPq0/+eq/eCKlFAQDlajM4r79C8aTWHsRBSBwM4fDKZrVibo8wqQwxsAf703XPiqlEywmLCCYJKYMn+4v32SpuKZKVxKcd35ep7xsc9zpP8ZniNDQNs/+x064/6ZKZiZ+BrEANC9MC3z3a1NSC2GguRcBkissK4alyhzfosoypWSokwXELuvPZkPTZpZHnhb/9gAIfN195brOyOIfsWW4OX7txOMZJUgqCyboiCfPizNKufIf77n3MSJnDx3RCsMYArRreXp+unOHFQiSqwMiSbGKhr0gmCSsBnIh9wRp3KbjvyALh6cLpP31faxN1gk/vF8L8VBpDvHnhmij5ZoQxRBYiBVZ998fFw2FOtB+nUa+2kVIdpkSm+7n+enktV0CYxfClyxfVdJgo2pIeQPAzAInW6Pdflxgkx0N8EiuDsvmQTA9jzxQohu1F3A+4yTmzcul9ZIyHzIohlZhQRfV4+w9W2RVlOeHWGAVb3J3tM01WqGVrAYyfACs+khtaRSdEP4CuCACHwoP96cqKYoZ2D7BTBkg8lTtQj9zYRRIMIIX4YIF5vr/5/iIraROSE1aVGTGBN6pb1nQzoO4KQ3ff8a1PF16M36CdIymeqV5CN5qr7o01dRX1Q/U66pkOdSgCxNRv2Op60wBmOep0vqKIfNO83HPqWIEDUV9/9Ibr3mu9IdScRLAU1IpR3f7xlUnTasi5BucIe9er7m376J7scVVXlsv1yBcdrNRGOevK7Tq6+Jggagubitod/0dukatyJRECu0PaXuPriE8Rd/zzVN7xqZB39/hvZbsBnC8SHQ1bq50K77Yd9Bw6LD/5zhi+EZzOc+54gqDgd8sTzk8S0uVmuWCjKwEkQIe76TtX17Ye4kIRgjQFJCIOGrdZV4k60R5ElYzNi2yd+bH7He0oQhEQuqj0idLhZrimDJRsfGUkYN/6jbrhiSORGXCMJgccElHbKHpFPskjsheHE01SAlCIIEAoLdc8Tk/QZ3+2MJQmDQ70JhHD3zQ1DVa2GW7wG+n+2UFNm/CkIWIyNxw0h0E+syBxh5ncWibpGQsoRhKw8WqihP/zpSuCWZXBltcBKWq9GKXHXTXXE+e1qpJ0rCMdVcfg6500T/cSNjCBxymQDPploCDKRqH0M8vuxXlOWIGg46r+nXpohtuw44MhB0AhpdCTqWlxBbrq8ukYY1Xwt/Bm1wckzVtqRP64SyAe0vWTxwo5tCdHfA3+wV//u1lKc2apq9OuUuE9pgpAYxkD07sBl2jJ/TEyzG+VFslPMlh3Pr6oTR6P6FVLe0McEMmHKejF89Dr9nO5Y2SKJf1ZZzme45cqTUt4gGgiCoGPQkXOGHafXMJDd8r6yk7lK4oAfRl45q2WmOPesE0SzRsenhDAOTubM3yx+mbpBTNb2sjOD045YZINo/MAetTstU3Tt0iwQtp7AEITsKALmvvD6HE/YKFkmV4gDIVFX32oOaadUKykaNygnWjU7XjSqX1FUrlQ6qfwy2zQ3bsoWCxZvFdNnbxbzFmaJZWv36GfwQQB4EnsxSUhc4JDHAYdduzROWfYosn/l78ARhGwYVu4+AxbrrshONiDJ/HbXaAIppzm2EQyhQd0M0bRhpihfrrioeVKGdi3hqe4dleiOrL1i/cZsjQByxPxF27S/nbpDJCf3FNV2FrIKeEkAEhe0mVUGH7PH7m2ohyuV74JyDSxByA76bvRy8co7C/QQiPEgDPkdBgvAKoKtg3sEdJze+G5GmSIis1xRUTGzmKhYobiodFwJPX3pUrkOiMW0KIdHtCIOHDgksnNyz/7enrVfbNi0R2zdtl9syzogdu4+qA9IrO+c1ceML2d/CvNqBdArFvFPEgLlc3TaVZfViXgbrJ+BJwjZXSPGLBev9/1ddyxjgDr1zpTluLlKYoFAjmijnisA8UggTeSAZoYHGPiFCuUeVinTRqaTz+JxpU6wRigrHrunQaAJQeIvbQhCNhgZo+9HC8WcxbtiNj7JMoN0hQgg1Oy9h3UZwe05camKk7QjCNlR6OE//3qJ+G7cRp298UIPL8tOxSuEgHwAdDyvirjikpqBtsOY9VHaEoRECNqZseNXiSHfrBDz/tits1LFix6TUJZK1iXRV2QRPFD5w1J/w5U1dUu93x3w4omntCeISOSit582c4MYNnK1zlLFU2MT+d1E/WYVQH6JJIJOF1bTiKB6SthVEoGnkCBMsAxxzJ63WYyf/KcYP32rHnpTqjMTKZCbVE/5MauAtJ8goLdpVkGc1/YEcXrLKiERGGAxJAgDpEQ/gq1auGSr7vYwf+EOMVNzggMgDKn2TJTmJ7pukfdSIEbtyyoANKtXVrRokilaNa+kXSsn1XgYWVe//g4JwkXPEAhhxerdYsGirXmGsQXLs3VjGGwWxIHalD9pL3DxGcMsku1h1ueP+wN/rwLIAVjPT6lRVjRqUFEzElYMCcAQi+YPQ4Iwx43jN+wnwIK8bEWW2LRlr1i8dKcenmXj9oOaC0UugchCC2tEA7FIgIgY3BLg9Q9F3DP49x04okW4OFaPVlGvdoZu3KtWtYxuEeekphBix0BIELHjUKkE2K5t2/doYXYOi/2aNTpnz0Gxd99fYr/2fM/eg/oVa3XJEkUE1xLFjxWlSmq/i2pGRC12UWaFkuFsr4Tp2BKFBBEb/sLcAcNAxKIdsJaFzQkx4AIDIUG4QFqYJbgYCAkiuH0btswFBkKCcIG0MEtwMRASRHD7NmyZCwyEBOECaWGW4GIgJIjg9m3YMhcYCAnCBdLCLMHFQEgQwe3bsGUuMBAShAukhVmCi4GQIILbt2HLXGAgJAgXSAuzBBcDIUEEt2/DlrnAQEgQLpAWZgkuBkKCCG7fhi1zgYGQIFwgLcwSXAyEBBHcvg1b5gIDIUG4QFqYJbgYCAkiuH0btswFBkKCcIG0MEtwMXCsWdOIPbRs2TKz1/meV6hQQVSqVCnfM7ubdevWid27d9sl09/Xr19fKV2Y6CgGrPB7yimnmJ6XZ5WvTJky4sQTTzz6EQ9/bdq0SWzfvj3mEgsX1iKXlCzpvp7aeQWGsHbtWoIEKf2dc845hmVYPWzevLlS2dQhBOcYuPrqq03xu3HjRtMCu3TpYprv5ptvNs0X64tXXnnF9Luq4zA6HeNy8ODBRw4cOKBcPdMVQitcGcaPH6+cloSsPrNnz3aUxw+JqbfZLMYqWaRI7mlAfqhriRK5JxQ5rYtVG8qWLeu0OOX0RYsWVU6rmpBxKcemRhji2muvtc3qmQzxxx9/2H5MJlBlxWR6v1zfeecdUblyZcO/efPm+aWaKVkPbRaPa72vu+46ccstt9h+wzOCmDNnju3HZILJkyfLnyl1hYc2A/jWENxjIB4rRHRtBg4cKLp37x79ON+9ZwQxadKkfAVb3UycONHqdfguxEDcMPDiiy8KFAdm4EqGKFeunMjKyspX5rfffiv69OmT75nZjeTrIt8blRn5PvydvhioXbu2sFqdwQzy3fz585WQ1KtXL8GfEbgiiDPOOENMmTIlH1GsWbNGoDqzU79CnaSNhOrVq4tTTz1VjBw5MvJx+DvEgI6B119/XXTq1MkWG9JUMGrUKPHoo4+apu/du7cpQbhimVq0aCGaNm1a4INz584t8Cz6gZF26aqrrhKHDuUe+BedPrwPMaCKATRk2KweeeQRMXz4cMtsZmyTqxUiOztbXHTRRXkqLfll5IgOHTrIW8PrzJkzCzxv3bq1cCKUFygg6gEzxc8//6yXuXDhwrwV6bjjjhP16tUTDRs2FGeeeaZj443Vso1ByA2wqjKR/P7772LHjh36365du0RmZqa+2taoUUM0btxY72g35adrHrsVZc+ePYaocUUQDLhmzZoVKPD7778XPXr0KPA88gFpooGyGASxAlTfrVs3gTZBBTTjoHjuuedMl2MGKwQEIQFbtmwxLfaCCy7QznUolpeuX79+lnrvMWPGiKefftqRPUYzXolbb73Vli01rWSavdAMcwUmbTsUuGKZKLRJkyYFyoYdYhCZAYRkxDLVqVNH2Y3DrOxXX31VVKtWTZkYKIe6dO7cWZ+BjepNfVEeLF26VP+LViRE1gW5SCUdZZ577rniwgsvNMRFZJnRv5966indBmKnOozOl673VpNsRobxiUuuCIIPmQnPZrwZnTJt2rQCfQMVxwIMMNg3BotbQDuBwW3WrFlui1DKR11h14y0bEoF/J0I1aGKkclJmUFLyzg0mnxpJ1ors/HriiAk8jR/Gfkz7/rLL7/k/Y7+YSQ/2PF60WVE319++eVi9OjR0Y9d3bds2dJSR+2q0IhMDGRWES8AtjBd7DnFixd3hDJW+/bt25vmoR/MwJUMIQtDgB46dKi81a8//vijLuXne/j3zdSpUws8ZhC6BdRnKqraSy65RP/EggUL8gRss2+SNh5uGHSSVUdQH2wxKBiYvbZu3WrbNuw+bdu2NWtKYJ6rGn1RSjAerGRIcGzp02TmBmjl7Sq9HrUZ39BD0cy7UOuhAuml56W2jBV4J9Mb1dGqfuTTGn5EW60KZNW0TkesPEHJi4ekBNoi2/PBBx+Y1hFcyLTyKsvgqhmCTPNqdpgj1CsaKMcqH3WVdYvOSx9J/EVfJc6j83CvqSxN8+EJGy+wa2d0G9zeM26sICaWCXWgEaxcubLA40WLFhV4BrWa8XIFEkc9eP/996OeHL2FR9y8ebPh7Ime+osvvhBobMzg3nvvzXuFbtvKA1QmxJdJppVX+Y7rRx99FHmb7ze+XUZ7PigHnbpc4fJlCm8cYQA8apOHrao9JoKgwxh80WBkUzBiQ2677bborEr3CKdW7MeIESNsB/GTTz4pzAR6tEle8+dmbgXIYXabbs4//3xTvBhpx0wTp/ELxowKrmIiCPCLW200GPF8Rs/MBmR0edH3Vu7jGqsgUOOqgJXNZOzYsSpFKKdBoWD0Z+ZTE1nwoEGDIm/D3y4wgOs+avkPP/zQMndMQjUln3XWWQU+YOToR4WiAaOXGzBabWQ5N954o/xpez399NNN0/z666+m79y8wN3FCTCjoaZGcDZTHzopL0ybi4G77rpLdxQ0E6xjJogGDRoUwHW0o5/ZUqU6k0d/YPr06dGP8u6/++47YbQa5SVQ/GH1DcUilJKhL8e9BNeNFStW6Mv6b7/95pl6VqkSPk8E/4/2TWUPPh4A0ZrP6ObB1cCdGMmvMROEGf+Lf470azJy+jOyYURX3OzeyvhntBKZlWP1HDmCWRo5yWtgdyFsELO/lfXb6++mankYXuVYsmvDnXfeqfcbMqaVnPnuu+8auhnFLENQQfj2aIicpSN/y3Rt2rSRPx1fc3JyHOfxQwYIDAtz3bp19c4KiUGtV/bt26eW8O9UTGLIh5qa2DSfGbF4QhBGxqFIJz42eEfD2WefHf0o0PcQA3KEldHICAGspFYda5QnfJaLgfvvv98SFUacRswsE1808nxFEGQQAEbuCmY2DD2Dzb9SpUqZpmCzkRcQvYkp1jIR9s1Ur5FlQwCsnljwkbHgc7HIh+AcA8SfsgJk22iW3xOCMNOgmGmDEGhi4c2NhCHZcLRDVu9lukReMUpaCXoQwQsvvGBonKOeGJRC8B4DRnsiPGGZqCruzNGAgc7ISGfEYkXntbo3cj2X6c3iJsn3ybiihjaDZ599VrecG1mqZR4zLZ18H16NMWA2IcvUFStWlD/zrp4RRKtWrfIKlT+w9hpZfGNx6KNsK7aI/bR+A1xFzACCsAOjScUuT/heiI8//tgSDQSXiwZPWCYKNTPQGWlS2KkWC1itEFK7oMKSsf/h7bffFtER6djvwSqGCs8LwL5gBBC2XT2Rw2LdP2H07aA/GzJkiLBSwYN7I9baM4IwGqRGxEBFogUZp51DQ+C7jfhyvslA/uSTTyyLhQ3BR8iojmQk8IFXYPYNFcHdTD3oVd2clAPOmESMeG8n5UhlgWqevXv36goaO3YYrRFuPThS2u2RMV2ZzVxhrdyrpft3dF5tsJu6DmuN19+Z5XXq/m3mei6/ownuR0hjBLiF4x4u0xpdjdyqrdy/cV82g0aNGpl+K9LVPDq/iku0mTszeDZqF8/cun+blef0uZFbvkpbnX7HKr1R/4J/z2QI7eOmm/V5JyFWgVqWg2bLyCAo38NmSNXlNddco4cwxCjG7IQNxGzWJj92EztWRn5HXokDRNnsl0alHClIs6vPDHAjYI80mihmOK44oFGWVWwhs/JS4Xmyw34Sosa0f6NnJXnvZoVgttM6xPLPaCMM33S6QpAHKrf7ntP3VptgtGVY+XuRM/+SJUuU8zmtrxk+/bxCGK3ciVohNFaJoWMKnq4QKsY2O2OJNiCUASpHR49c4gWw4liF42T2dwPM9larmVWZtI0Vywy0icvsVfg8CgMa0Rn6L0Um85Qg7AZ7rAa5yIrL3xDF6tWrhamQJBPaXEGWnSDOt+wiwpl9hrJpvxMgPUIiQdXMALeO0E5hhp3c5+w4xKMYr1k78JQgGDBW2x3xWowXoG5ltnQ6EzOgyKeCLOpOlBA2+hgZIu3aRjRBCM8OWBUgPNKDUyutHG4xL730kl2RafGeLcngjjHIBKkpQfS+xa/OyvAZiZxCMFORDyJ/S1+kyGfyNx1lBG7yUI7bfEZ1YMbE5RyDFmrC5cuX6+VT51q1aulOdvhfwQKZtcOo3Ohn1Jn94/jpo4qUwiJXq3P3qB9CPxEi+L1//349OiA+TAj8Rq4wVvihXtHtsEofnTayXVb5ItPF8tvo+15816hcp/W0JAinhYXpQwykOgY8ZZlSHRlh/UMM/D8U7wlLKOvBmwAAAABJRU5ErkJggg==;" parent="1" vertex="1">
          <mxGeometry x="379.27" y="376" width="50.57" height="64.5" as="geometry" />
        </mxCell>
        <mxCell id="Cynykqa9UGgM5TXmkAhV-1" value="Centreon Hughes" style="image;aspect=fixed;perimeter=ellipsePerimeter;html=1;align=center;shadow=0;dashed=0;spacingTop=3;image=img/lib/active_directory/generic_server.svg;" parent="1" vertex="1">
          <mxGeometry x="514" y="548" width="28.000000000000004" height="50" as="geometry" />
        </mxCell>
        <mxCell id="Cynykqa9UGgM5TXmkAhV-2" value="&lt;div&gt;Plesk&lt;/div&gt;api-idirect&lt;div&gt;API CRM&lt;br&gt;&lt;div&gt;&lt;br&gt;&lt;/div&gt;&lt;/div&gt;" style="image;aspect=fixed;perimeter=ellipsePerimeter;html=1;align=center;shadow=0;dashed=0;spacingTop=3;image=img/lib/active_directory/generic_server.svg;" parent="1" vertex="1">
          <mxGeometry x="626" y="549" width="28.000000000000004" height="50" as="geometry" />
        </mxCell>
        <mxCell id="Cynykqa9UGgM5TXmkAhV-4" value="ns1.hispasat.es" style="image;aspect=fixed;perimeter=ellipsePerimeter;html=1;align=center;shadow=0;dashed=0;spacingTop=3;image=img/lib/active_directory/generic_server.svg;" parent="1" vertex="1">
          <mxGeometry x="724" y="549" width="28.000000000000004" height="50" as="geometry" />
        </mxCell>
        <mxCell id="Cynykqa9UGgM5TXmkAhV-5" value="ns1.hispasat.es" style="image;aspect=fixed;perimeter=ellipsePerimeter;html=1;align=center;shadow=0;dashed=0;spacingTop=3;image=img/lib/active_directory/generic_server.svg;" parent="1" vertex="1">
          <mxGeometry x="824" y="548" width="28.000000000000004" height="50" as="geometry" />
        </mxCell>
        <mxCell id="Cynykqa9UGgM5TXmkAhV-6" value="NAS DELL&lt;div&gt;10.52.18.96&lt;/div&gt;" style="image;aspect=fixed;html=1;points=[];align=center;fontSize=12;image=img/lib/azure2/storage/Data_Shares.svg;" parent="1" vertex="1">
          <mxGeometry x="936" y="549" width="64" height="55.00000000000001" as="geometry" />
        </mxCell>
        <mxCell id="Cynykqa9UGgM5TXmkAhV-9" value="Kubevirt" style="shape=image;verticalLabelPosition=bottom;labelBackgroundColor=default;verticalAlign=top;aspect=fixed;imageAspect=0;image=data:image/png,iVBORw0KGgoAAAANSUhEUgAAAIEAAAB3CAYAAAAkayNUAAAKn2lDQ1BJQ0MgUHJvZmlsZQAASImVlgdQk9kWgO//p4eEFrqU0HtvAaSEHkB6F5WQBAglxkAAsSuLK7gWVERAWdClKrgqRWyIKBYWAQXsC7IIKOtiwYbl/cAQ3H3z3pt3Zm7ONyfnnnLn3n8OAGQSk89PgSUBSOWlC4K9XKmRUdFU3DggAgmAA6YAx2Sl8emBgX4AkQX9d3k3AKBZfcd4Nta///9fRYrNSWMBAAUiHMdOY6UifAZZz1h8QToAqFLErpmZzp/lNoRlBEiBCN+d5YR5Hp/luHn+POcTGuwGABrpCk9iMgUJAJCUETs1g5WAxCEtRdiMx+byEJ6t1yk1dTUb4eMI6yE+fIRn49PivouT8LeYcaKYTGaCiOd7mRO8OzeNn8Jc+38ex/+W1BThQg4dZJESBd7BiBZHzuxe8mpfEfPi/AMWmMue85/jRKF32AKz0tyiF5jNdPcV7U3x91vgeK4nQxQnnRG6wJw0j5AFFqwOFuWKF7jRF5gpWMwrTA4T2RM5DFH87MTQiAXO4Ib7L3Bacojvoo+byC4QBovq5/C8XBfzeop6T037rl8uQ7Q3PTHUW9Q7c7F+Do++GDMtUlQbm+PusegTJvLnp7uKcvFTAkX+nBQvkT0tI0S0Nx25kIt7A0VnmMT0CVxg4A0CARV4AAtgiSyQzslKn23CbTV/rYCbkJhOpSOvi0Nl8FgmRlQLMwsrAGbf6vxVeHNv7g1CcvhFW3wFAFbyCAwu2pKQXOeQ6BS1RZsOco8kWwC4RGMJBRnzNvTsD2buKyADFIEq0AR6wBipywY4ABekSh8QAEJBFFgJWCARpAIByATrwRaQC/LBHnAAFIMycBRUgxPgFGgG58FlcA3cAj2gHzwEQ2AUvABT4B2YgSAIB5EhCqQIqUHakCFkAdEgJ8gD8oOCoSgoFkqAeJAQWg9tg/KhAqgYKodqoF+hs9Bl6AbUC92HhqEJ6DX0CUbBJFgGVoF1YFOYBtNhXzgUXgEnwGvgbDgH3gUXwRXwcbgJvgzfgvvhIfgFPI0CKDGUHEodZYyiodxQAahoVDxKgNqIykMVoipQ9ahWVCfqDmoINYn6iMaiKWgq2hjtgPZGh6FZ6DXojeid6GJ0NboJ3YG+gx5GT6G/YsgYZYwhxh7DwERiEjCZmFxMIaYS04i5iunHjGLeYbFYOawu1hbrjY3CJmHXYXdiD2MbsG3YXuwIdhqHwyniDHGOuAAcE5eOy8Udwh3HXcL14UZxH/BieDW8Bd4TH43n4bfiC/G1+Iv4PvwYfoYgSdAm2BMCCGzCWsJuwjFCK+E2YZQwQ5Qi6hIdiaHEJOIWYhGxnniV+Ij4RkxMTEPMTixIjCu2WaxI7KTYdbFhsY8kaZIByY0UQxKSdpGqSG2k+6Q3ZDJZh+xCjiank3eRa8hXyE/IH8Qp4ibiDHG2+CbxEvEm8T7xlxIECW0JusRKiWyJQonTErclJiUJkjqSbpJMyY2SJZJnJQclp6UoUuZSAVKpUjulaqVuSI1L46R1pD2k2dI50kelr0iPUFAUTYobhUXZRjlGuUoZlcHK6MowZJJk8mVOyHTLTMlKy1rJhstmyZbIXpAdkkPJ6cgx5FLkdsudkhuQ+ySvIk+X58jvkK+X75N/r7BEwUWBo5Cn0KDQr/BJkarooZisuFexWfGxElrJQClIKVPpiNJVpcklMksclrCW5C05teSBMqxsoBysvE75qHKX8rSKqoqXCl/lkMoVlUlVOVUX1STV/aoXVSfUKGpOaly1/WqX1J5TZal0agq1iNpBnVJXVvdWF6qXq3erz2joaoRpbNVo0HisSdSkacZr7tds15zSUtNaprVeq07rgTZBm6adqH1Qu1P7vY6uToTOdp1mnXFdBV2GbrZune4jPbKes94avQq9u/pYfZp+sv5h/R4D2MDaINGgxOC2IWxoY8g1PGzYa4QxsjPiGVUYDRqTjOnGGcZ1xsMmciZ+JltNmk1emmqZRpvuNe00/WpmbZZidszsobm0uY/5VvNW89cWBhYsixKLu5ZkS0/LTZYtlq+sDK04Vkes7llTrJdZb7dut/5iY2sjsKm3mbDVso21LbUdpMnQAmk7adftMHaudpvsztt9tLexT7c/Zf+Xg7FDskOtw/hS3aWcpceWjjhqODIdyx2HnKhOsU4/Ow05qzsznSucn7pourBdKl3G6Pr0JPpx+ktXM1eBa6Prezd7tw1ube4ody/3PPduD2mPMI9ijyeeGp4JnnWeU17WXuu82rwx3r7ee70HGSoMFqOGMeVj67PBp8OX5BviW+z71M/AT+DXugxe5rNs37JH/tr+PP/mABDACNgX8DhQN3BN4LkgbFBgUEnQs2Dz4PXBnSGUkFUhtSHvQl1Dd4c+DNMLE4a1h0uEx4TXhL+PcI8oiBiKNI3cEHkrSimKG9USjYsOj66Mnl7usfzA8tEY65jcmIEVuiuyVtxYqbQyZeWFVRKrmKtOx2JiI2JrYz8zA5gVzOk4Rlxp3BTLjXWQ9YLtwt7PnuA4cgo4Y/GO8QXx4wmOCfsSJhKdEwsTJ7lu3GLuqyTvpLKk98kByVXJ31IiUhpS8amxqWd50rxkXsdq1dVZq3v5hvxc/tAa+zUH1kwJfAWVaVDairSWdBlkKOoS6gl/EA5nOGWUZHzIDM88nSWVxcvqWmuwdsfasWzP7F/Wodex1rWvV1+/Zf3wBvqG8o3QxriN7Zs0N+VsGt3stbl6C3FL8pbftpptLdj6dlvEttYclZzNOSM/eP1QlyueK8gd3O6wvexH9I/cH7t3WO44tONrHjvvZr5ZfmH+552snTd/Mv+p6Kdvu+J3de+22X1kD3YPb8/AXue91QVSBdkFI/uW7WvaT92ft//tgVUHbhRaFZYdJB4UHhwq8itqOaR1aM+hz8WJxf0lriUNpcqlO0rfH2Yf7jvicqS+TKUsv+zTz9yf75V7lTdV6FQUHsUezTj67Fj4sc5faL/UVCpV5ld+qeJVDVUHV3fU2NbU1CrX7q6D64R1E8djjveccD/RUm9cX94g15B/EpwUnnz+a+yvA6d8T7Wfpp2uP6N9prSR0pjXBDWtbZpqTmweaolq6T3rc7a91aG18ZzJuarz6udLLshe2H2ReDHn4rdL2Zem2/htk5cTLo+0r2p/eCXyyt2OoI7uq75Xr1/zvHalk9556brj9fM37G+cvUm72XzL5lZTl3VX42/WvzV223Q33ba93dJj19Pau7T3Yp9z3+U77neu3WXcvdXv3987EDZwbzBmcOge+974/ZT7rx5kPJh5uPkR5lHeY8nHhU+Un1T8rv97w5DN0IVh9+GupyFPH46wRl78kfbH59GcZ+RnhWNqYzXjFuPnJzwnep4vfz76gv9iZjL3T6k/S1/qvTzzl8tfXVORU6OvBK++vd75RvFN1Vurt+3TgdNP3qW+m3mf90HxQ/VH2sfOTxGfxmYyP+M+F33R/9L61ffro2+p377xmQLm3CiAQhYcHw/A6yoAyFHI7NADAHH5/Cw9J9D8/D9H4D/x/Lw9JzYAVLUBEI7g7FhUMjuDuAAggdgCER3qAmBLS9FamHvnZvRZ0ZgCwGJusL5jVDgF/iHz8/t3df9Tg9moVuCf+l/ycAFe5S6C1QAAAFZlWElmTU0AKgAAAAgAAYdpAAQAAAABAAAAGgAAAAAAA5KGAAcAAAASAAAARKACAAQAAAABAAAAgaADAAQAAAABAAAAdwAAAABBU0NJSQAAAFNjcmVlbnNob3TUuqb/AAAB1mlUWHRYTUw6Y29tLmFkb2JlLnhtcAAAAAAAPHg6eG1wbWV0YSB4bWxuczp4PSJhZG9iZTpuczptZXRhLyIgeDp4bXB0az0iWE1QIENvcmUgNi4wLjAiPgogICA8cmRmOlJERiB4bWxuczpyZGY9Imh0dHA6Ly93d3cudzMub3JnLzE5OTkvMDIvMjItcmRmLXN5bnRheC1ucyMiPgogICAgICA8cmRmOkRlc2NyaXB0aW9uIHJkZjphYm91dD0iIgogICAgICAgICAgICB4bWxuczpleGlmPSJodHRwOi8vbnMuYWRvYmUuY29tL2V4aWYvMS4wLyI+CiAgICAgICAgIDxleGlmOlBpeGVsWURpbWVuc2lvbj4xMTk8L2V4aWY6UGl4ZWxZRGltZW5zaW9uPgogICAgICAgICA8ZXhpZjpQaXhlbFhEaW1lbnNpb24+MTI5PC9leGlmOlBpeGVsWERpbWVuc2lvbj4KICAgICAgICAgPGV4aWY6VXNlckNvbW1lbnQ+U2NyZWVuc2hvdDwvZXhpZjpVc2VyQ29tbWVudD4KICAgICAgPC9yZGY6RGVzY3JpcHRpb24+CiAgIDwvcmRmOlJERj4KPC94OnhtcG1ldGE+CiF3n+sAAEAASURBVHgB7b0HtGZXcaBbN3TOuVud1UE5Z4ESSEhCZCQbG/AY2zCDx9jv4WVg/FjLa2zjmbfmzYwn2B5mxs9eHmMeNghEkAhCAgkhkrLUip1zzunG9311zvn73L/v7b63g4RYs7v3PefsULt2Ve3atePf0ouLX2TXQ+WsYSu+pXyvwtqLqOKvkUe7/kOPTvd6DoEMv+BO5tedXK28wsF7S28Tq5s+69l/Ed+bSfQLVUcbvL7Z7e88HF3UvAtmH+7pjX2dnfnu9/6Ojujs7m7O8gv93fKL3B1kQ/dP5ZPxvbGHgD2ogINEHcJ3lSwexnMU4TN5TijDBv+wEN3rT428fruD5HDVp9fI30+4sb0IwEH4s4v3ld0d8ZUnHo9l+w7H3u6W6LDlt7TE2JEjY/boUfHhc86Kc0ePjuGk1SscLSVcXlOm/NuX3bUEJnodudedJkhS+6ekuSpcld+mN8wPWzyPTnx7Gb+b9xdg9pdWron//OQTRJIi4ZSs1D5GEBLA8Nb49TMXxa9deklcQNhkolqrZGTqyYw9KQQUVTrfTFQmrIJfB8/XnRAkTZN5Bb216ezBJX2yQSHgQ1W/E38Qhq3evz8e3LQlPv/ss7F89/6IMWNJTOoeEvc29f8KQxsi1dEVE9rb40NLlsRt82bFkgkTYmpbS4yktN4UgqK8Ngqz7JbG8IOP15l7/QmBAlC52rvq3pavDKgF9I/s3hV3r1kX/++mTRGbtsJwMowchXpAwR/CGhjWT2+oVHUBpdW4Dt4PYyiMjg8uWBQ3z5wUb5g1PSa2tqF5Wugm9GqhUgTEJ/sNnoS9XtzrWgh6u+mXaZ3dPd003jZZFpvxP9y1Kx5atyG++crqWLF7L4wfWbR6VUXqdRiU0yNwLbsA2WUkTiHIISPfBvUgTt16NMbYYfG2M6bE2xefFddNmRqzYfQItILCkI6RRgNcEcL3z78wvO6EoNHYeLH1H4DYhqn6NzK8+9snno6/Wr2KQFrzYRjQRltFULJl2krtBkp1zkvhkk+ECygZahpcT5WWCI2OFjUEwtDVFW8fNzF+64pL46IpE2M0UVOMRrDqc28KwP8WAggzNFeYXDKi6Gn75rb31rer8+HLAXi0Ckv/p6j9h3d2xN/85GkYh/puJUE7kVqKCoNeDdCD75WbxNVbaEMIlAK96UjjawoF3wqP6VIrUIYagk7nHYsWxnsWnhk3Tp0Ss7AhFIQWMrby1+RHivGr5spiquIaMVV4I+D0v7xmmsC6yktJA3nTaXf7z9BWe1oTlURJXsK/wxhzXTDElv/dTRvj/k0b4h9eeAF+oPLbaJMKQGsJPQHArFT9FiFjKbHFEpNFBhav+UI+s/pHIUhXppObIkEXFJoLwu5AGLoJA95dZy6I62dOj2tmz4q5I4bHxEzSQ9JeepIukmBHaGcI3yr61DWhUgS+un9fMyGQCDZMXfKM90IE1Aat+a8NYkn3Dpq/ttxuCLYHhn539cq45+WX42t79xFJgh6kQwK38BRmWvwVlatnFlUQvRKAFIYyPDlTvltowwGwas5NoAqtQqDhCgWa4Orh7XHnWUviLUvmxzSC7SYCm6UXTTSsEmyViHn0oJxCxeO1cq+pEDToXrYGhUBV2o0IqFSHSSRcB3zYLPMPofKf+Fk8tHY1BCSyBclosXUJQGqWDOsjBEKouTQMy++TFYIss0RyP4PSMRqgmqfdMXXY8PjE9TfEDdgM8xEiBqU5khheJk8BUNZEXf8autdUCCotnQ0N/tk0pFE3zETRBu08NqByl+3ZG1967rn48spVEePGF2qB+f6CemRMwgoAauY7qqMCTmjDmaRq1QYOKAQCSUAm6punCjZ/JQRVWV0IwCgEU7uhi4SouvMRgl86Z0lcM2lSLB03NrXDcGA7rOzJfAKk+6vjlbBfvT+vkRDY+8vsJHHRhumr7a5tR/oN9P3fXLEyvrx5U3x/6xaMAUK19G390i0JKIMqriSHCeeZ6rwKLwvhcZTrIwT12Hp3UA/3vdZsLcuaiItDSJ8yU23jiET4pmHeYenE8XHnnJnxpjmz4rwJ42IM6VrBcxjZhdjuBFUBrV5Chp3uP6dRCGSCHiKkr1elMAG7skVAL40D+vOdPNYT9v2NW+Ofnn4xvr9rOyBoVYLQpcXPhzN99qt2BRXRu+vMkYmWXboqf/VdPU+JEFiOgqBIl3XOoSTvGIPRBY7tGKyHmZzqPBiz0Qy3zJ8fd563NC6jYuPJaxfRDusTErgW4lAheYynGQaq2zGyNUedMiGQ7LpkRSJniF4sDT2CrUrf/l+130Wcqn8zLenxA/vjT7765XihawSUoBcdSb7DzATk9C5ANRJGlMx2LTiFwCe+sjKBNXhNcAQnsx1xVmAgV+XhmZrAtNQzgxUE68wzBYHAQ+DWi60wQtuF8C66MfE9tC/+TwThrksujTmMdiYgzNQ6wSgE/QmCkC3NooBw5MP3k3CnRAhEzIYpkijrwtpPlUxImv4SgmoloeArVVEADqE+l+0/EI/u3R3/lXn9NTuY3XNFqB1ymFafap8SVPuZH5gWqNf115qTOZmYBGXeTHy6/9QRqxC07vhEh7BMYh3K+HHj4reWLI7bpk6Ic8ePj8kkGEnXYHfhNEfV2/Uy9GWgmXSTxikkggBu+Tjhyp0SIbD0qg0ooda3BSFooTU43NPSb6Wliixsjs0keuFgR/x49Zp4YP36eHQbk70ysxXm99BidFl7c1TvvvBdEc/PgdxrJgQDIdRfeFKpsCUwJCeMHhm3zp4Rbzl7aVw7fhx7GlpiHNmyDfHsVbPoqFs1EZWELkKTNH2+q/BBPE+NEJSi6KN85dmTKsvhnugrJKzfxStMtnzuyWXxxQ2bY+NOFnXaYD7j63Sp3itFKKTSVc3hF0oIqFs1La3WZCo6EATXvq/HDvqDW94c548ek1PSLHmVaxQ0J4np7GWSp6J2RafyOcTHqRECC614VuGFoHcdQoHRF+6hT19On3/vtoPxR488xHwvgz+t4RFjyCjTyVR1H8LSum70t3z/oglBnVbZVKivE102ZenQiRHZ2hU3LVkQHzn7rHgDG1xmtGE6ql3516YxzGJV5STVyaxRnCIhUDzxqmrVPhXaB5J7kern9uyOH6zZGl94eXm8eMhVftIoyap/h3xVXTSaqncqlVZ/fvPH73S8p7BU342IKqCR7Eimev6+yV6zL+ulz4qVdZAmGVRGOirqxYgk/F3TZ8W7zzwzls6cElPae+MM9juNpGE516AAaEY1VjILKEP6e4qEQMSdvGEChCncPbTkJ/bvi3985fn4+y1bY992xvguuFjfYTDeiRSxH4ZXqg0v5YhaF9+GHeXMZ8eiM0G/iTL25/pPjmQq3KlTjiR8WiWfZZw06oQwdpOtw+OKGSPjXQunx3tnnxXTaHCTEINu0nfiR0C3UoyGXPVTJASW25sjhDUg/fcvLo//vmpFrD+AWlNtWSlVvO8+Kwb6qqueRBfdQBWmZFTpebX5NDQB4RJJV+8usonV8xRJfq7+Ws/KZRUIKKvSePpi/dSuji6kXSfd6PDuuHTUmPjMbXfEDcPRCAlH01tXAcmPQf85JUJgncR1Jwz4bz9+Oj799a9FLFzMOJ8p3pFs1exirF+XcJFVMComim7FSIHJyKxPfhhpYOEsqHK5ZmDaKsynvpa+z3uV8efw2e9Qt6xP1Xjy027zYJwzfFj8+ZtuiavY9jYWLdtm13qC7kQ1SJ/ixG0PKv65LdvjP917D0yna2BfX7E65gyCKY7jUuphnvxLppYEyLz19+PAyeh6+kGUPRiQr3Wa1Ah2DQhBT2c8P7IlPrdyWTy3b3d0tA7L3vREUTwlQqDS7qR//4uv3RtbD6OyZCIbO6MbYdAnY6vWWTJ6UBhXzBxU4p/PRCdThRrJsnLuldCOYoUypk6Lpw4diHtXrYrtdJFaZEe7wTWAUyYErvh9a+WKos938cSVtG3MA7Dlq49Lo6eqXZ+YX5wPq3dKqggQ6ZUemLl2wnPGTJRrW2zHYHxy+65YgZZQ3/ZVuJX0HV8Qhi4ENZhqgMq/tO9g7GbuPxdNFIJhgGYFMA6zMqAxV+/LRXjQ7iSomTMrNYQHXWZ/Caua9hdXD6M8NWF2aY5kLB9/IvU3qy4bjjTEYwzGGBaksCF6GBNs6+yNtQdchylKEst0Vd7q+xjPoQuBwCjAwjoZq1qWquhBTvTk8K8dJHOunBhtgz3oiE4mQroZ5rjSZ8YkCPFuHWr2zpNWkq+xlO8+RbX6LltHBikk5Xemrd4Jbgw3xfJUuRKWxRb9XPHMYP444a/azoqaJivMg3DTlOgWL1TANZX0tXfxdjbRrDo3tzpnIKs9M+GyNXX1RNUOJuOe27YxDgPbnW8WoU939EsV0+cJZ4boBJwEgMcg6RzHQZj68DPPFkKgXso5ASKcEt6HdhhLBVwR5H+Rl4zZWuplN6hTJErLv4zPUURZaD1L9d5oeTXkKiSrNEeo3wgZ2ovlV1StcOWZRfoHb/0adeRdRtazEVS0agIV6swrDDM1ObWY8wk+WyBqizRkhnU4g0JhIgg7GW7vg64/Wb8ydi+cl+cnjRJum39sbBlgYOPFjz5u6EJQgzWcPkqebz1wILa56cOKlVJa1BAkuhCCg9uYF59cSExtNbEh6RVKJG+4o97rAY1U5QstI1ufafQg6Vp+flYIV8/mvIP9Jn9qOJ94eJObTC1X7ZWUNBwaJE/5k7YRYTLSMNU5qGZaw3xPAeC9mUkKtjA9R+eUci8fbHNPbZuNjDzg0QnN9/O9Yd++mDV2bDChmHImxGrxqUSIkP7d0IUAyvaiiqSvI1Omg2ILrX1np7OCFO2MoBKoMOgcHezbgTagm/AQiBsGrTD1ynr7qevTGgjM1m9E/d3vZicmlGvtnWqV2i5IiYOEE77dxMm6xAek3dRqeameVdGUI8Wdu5XJWT51rSro5BiHXqMd3DpIb7dQ9eAKjHANqju/FQIFRwHw3RHBaHccWEZPTOAk1W4bHpndsrDp4J44jBA4eDC7Pp3w+X8sN0QhAAFUk7PWOXNNSaL0AsvBaoNcFJL4CkPlVGm7iZs7PN537jmx4HCxk6aT4EPUT7aJY/M5g9aGEJRxjVpVgI88eyUSh0h7OWS6EYBf2LyxMEhFI2cos4AjGU7kzTKEV6loN8FNGhV/sGhRzIBRew53xU/27olvcuwtuP8g2hB4tZ42Qk85czpuZFwyZTLz/mpNVllToIoGVaDE3kOSj0zysc8S4e2iUe0d1hbPHOA8tQ0s91ZCUp/JXNJQxzV7dsWhaWfEGPIb7mOwbohC4J4gD2RaCKvaGidI9otbUPcc4EwhcB9+HQUl2dmsTdvizb9yftxCK8W0yRTKsakLIeClH2djOJ4TxgGQUvtuovztPziY5xFiGC0n8UlqHQ/MIOIpyf65HSYzC/r7C5bGh5cuZQ6f2VKssndTq8vGTojPPI2RLDLujVAn9x6Kq8ZMjd+/9oqYTWsdTq2tlwtAVd37YGgW4ruh7368x+n/zbLH45GDdK3usWxyHaTZeHBv7s20l1EJ+VBeqzbQlKXP5xCFoEK5gCE9drMs/MSa1WCsauzHpfqjylu2xIMPPxLvuOkGDBjODoKye26rM0fNyx82vMJBKLRCTTEkgbJBkiAHE0QeRB23Dm+JiRijH7zo/Lh/zUpUDTixDNtYphVgndqNMoqSjv9X0gKTaVu3lr+Tlb25goTJY2n5bvb45+ctjvvWvBKP00cn0mrFzu74f95yU1zE8jnYUGfZD68sHy/j3H9R6YSkCwnUlnsg3aO7dkfX7t3MwLfR/drNwuWaO4hdsIODGVuYPJo7fHSmqITAcvTHcoNpaLX87hIaTmXb8vIGxW3bocOx3r4uT/GS1OFCHw8KWrZU4B+++91YtmUHXQD6hD61OKw1HCTdhO1ZHY9xIQ54nxKHxQ1oCYlK73s3EZ0Uru9J0WenNyI/HIEbAfRb2dn7kTnTKRMANpzmWkrDIYp/cks7oAcBgA9/cOX1sXTEaMAzWqd1DueAiTUYT92XjOXISTdaSDp0D4s3LjiPY+2t4KYAFF5WymRHzY6eW5Tm0ri1AaRNSdxWhtlff+bJ2M86zKEeKmNrSHtHCSrcNspZtutgrNm1N+EXoYqUcwnHE4GjyVPBPcZTeS92xnZBzL0HD8RyJDX1jpU+ylltESYxY8q7H30kdgOhV6PNZxlbPXuQ6m58DyquBwu/m+6kl2/LbINirWwwbaMvLQ6HAzPH2EVFFZhRGIeTqPqvXX5VManijh1dRQsLqjiREUP4Y/UQums5P/BL2AJuiREzgXejCTt5Mkca6x0Wp+oiA43jANiObSBQHE2z9sXGu2IFUGO7h7r2OKwm0jF/B4g+snVtPNV2OJ5V8pwxrOpB/sodAtJuytjW1Z0HdA0X1cG6oaRNmGYQD2npHNAmLdR97BxUOvtzBqcnF8y855UX42crV4Ol1z0cXSNbyCHCd5N2B4TR76JK+/EHEbJDEOkAcfltGO+dVcdHH9HSjZaCAQvHTYiPnXM+BqKttwk3hcCChuysQ8QHL7gwFrCvwTFABqC12rE/9vD1jeUr4wdum7M5Ww74Pc4eypUQobg0o9gsapTiWWHWAwy34jnkU34OIWwbDh+Mx3ZujsfGIBV2QSKdwsVrzQnjIJpoO1pjLwyyatlsSDsYBg8mzZHiLE3soYQMPADjv/bIw4SJHBH2f/pmgRBxKunmiDV79sQDa9fGVpMmirwk0OKpjeBm1NU8X+LJFFQs4/0F/DII+wT+SfzzfL+MX4HfDfjCoVloeR0Q0gOh75o1Oy4dj9kmaI6wNYaKiU8jU5l3EA/qtmja9LiKuwmmMhJpp85WVaLvgx7LweULGxmZWFcpmzQhFm30f9z7QDxF/HKC1+A34HeRxwu0mPVN1MQobRyediXLtm2Ll3fuZcKQ1uYQkQZRaNyjnzugyfIdO2ILu7cVLj6PwBLeMZxaaejOioOHQvCKO4WpHHUZ2IlRJoAyBzvjviefjnfSmi6dNDG77HpGUz68Yl38+SM/jce7D8ahnP0gUEpbBvTIp4xluHkJfeXvXX9NvHv29BhPi7eP1VY4CAPO4hKq22bPi8effRn7ACLaNbQDQDhaluI9FMdQ7cNLlsYsNoD2YgvZNQihE47vhxaPrl4bj25kTkSG6Vz2db4Eo/Xx3fvi1i99leNoE2O8i2sU34KheMXE6fG+C86KeeA1EmB2ESquV7D2H9yxKXa3jYiJGA2MvwZ2JawtdM0bmK9ZgPkpyZPsImhVj+FOTAgAKA8OgPDTm1kyZj1b9Pt1iUkZYwtsGR7Ps8x8/4rlccFll4GufaKYFn2jRueC2WdEz4hxcWg/xGKDZRKzqojFZA15jm6LJ7Az/m7luriS/XcjmV0TlknGkn4sGuFNi+fFtzdsi59xtiGnsYlLopjIYvtzVbhlVu9ogUvGjoqbWcFziBsjvaOkGC4jDrEBZn/pJYQtt4IB3LkAzX/LsYMfi246eDAe3cKAT/WhEYgQfZPTVmPGjYl3L54fUyhPhkiJZxn3P8uezM1sK+tGs4wHvhNz1Vwbr31cL/bCNuZqNnMekg6wgXafRAN8iOLgnUQpc0ibl/ZTnKoqhcDI0stsW26jazA1aR0lmB9R/w/f+Gasgzh7SZsLUbl30MFTxBxOGd15yVJqAhBaQt47MNx5czZfQ5T0bT5JjY3wwOoV8WOM0/2U38YsXDtEa4GconDW+DHx3oUzSEefqmWvIVktZBF/lBPV7C584pV2F0kQvF++4PyYj0ZxnF8ImyKLXUKSr2zdGY9gnQf9uJs+isw8BKJB5wRSzpnAZhfZnDspbZlPPf5MfOyRx+Pz+w/H3Xv3x0e/883461VszCX3esrajbDsofyBBMBS2hD4faPaY0Pv4bysywNaVtOqHM/JkkE76SFhk048P/ulr1AhZ8YAk+q1EoL+QJpTL0GZBOFugb+9/7sYQDAMxrbwFK5/p+HfvmQeTC81TK43UIatTEFLJpVlOZbi/3984MFAEROFICSLhMUAgb77HWcvztXXQJ1nq7SgCo6vdVeCLeLB14ur8GcjxDdzAYUjAsYs9LvY7nQ5tPfYQcv+i+exYITL/QQ5thWm3/bjaq4UcuBlw+CpvWACuynsmG9zsdbHvnJf/MYXvxL/H4L0IMK9JbUgw+DUGsLCD+AOAXcH1Xtxzxa6wqJoWWIpx3NDEgKBJeoAl53feOKn9H9Uutn6Pl6pxmP4fP7HP4oVCEM3QxtVpDQT7mH+juTrX11/XdGCNHUkWhLSVE0OWE8zV/HFDRvZaMEGCzz0iBEkncAkymz63s9ceyPGIQqVllIsX5OgX6ISCLyUIIk/zC7pYPzZu94aC8lgFg3aLAHht6/+u6dfih1pEFKg/X0DRQVXEpNLwqUBjZboVXTwrnU4o6mt4jTwCLCeMj5i+tQin3AUIruPyhN0lKNRjCB+GwW/vHUr1HPqqaDlUWn7CRiyEIgXKMdmN5CMUT0TktIuskToj+kkIx7ibORmsXt+8tPYD5N6ylauKDhDOIFUN04dF7OdL9e4Ugi8HqYihs/KZbcwPD77xBPxPP0umCWb5KHoOUnztsnT44OLzuJNIeCR+Yms4BHUxyVliBcAqzILmIlTL+kcGXUCpAN1/jyjjs8tfxmNKFDqJaPrLrUWcWoAu0RmFxWUN89dGLfPXwQuxHUQ5sqg9xuMtdsDY2mqy2f9vQju+7doQEDPK3vX79tjSVSNcNA/nhuSEKRM0+ot4Ok1a0AepG3FTnAM2lkhvP0j/fy9z70UT27bTrugd5XmxI6g4sOwqC/E+PrQuYsLRmULk5D9OAkFDivZavWV5Sty6EWmTOhfmTcff+eZ/JXY7nZSe1WC0J/kZlHATZ3KAhH59zbSuYTOfD1hzgusc8ZUIbVqqcKtnx84u8oUBMvrjjEL5sdf3fKm+NPLLo4/ueSS+MLNN8R1s2ciHyyysQgWI8C2WZAEVcHLd7/rviVtKxtWB1rseTeZEC26g+HMYNIIruE8AmUBDz/3FMhScVVnIiQRSt8gViPbkZcKedHraI1nNm6Ob738YrZe1+IdEbYhAKNJ5xTsBWfMjJHeTqLA2af352SAy9So/j9ftz6eZ5495yBInuYKebQmLpg6NT586ZVJnFTB/cESd+vF/1w2bqFltk2IP/3BDzG6ChVrFWi7sWz7zvj6qvUl4ymsqlufJx9SWQlH8D81a27cMm1aLKUbPYf63DpxQvy7N78BAUCQJpDWime3R57BOgUkOenUeSvDduwC8rahqap5tGOByqzHStAnjnrwn+3l3fHUBoaGqjIDGrWvp86IWgCIZrpakJlpjV/lKpr1bFF3oqekfsIdRtwFk8fGh2YzF5/r98Jshis8qpGTQeTfeyge37o9tpAXsaFrccRhnp6YDLFu5JaQHLppG/RH7Ep9C1ODzrzU9/71O+I/L3slvrBhU3yRU1V/v2oNq4XPxSu7mAe0T7d6/TkbSWodDFRuKXnngrk5kWXd2rlubyyzfGeS75oF87AHmNhyK5mNqT83UBmmTU3Rhj3UHqsPHGb2sLvoEvqD0xQGhkNwIGGjW7lrX6ygFRc3hhGIGurrSuL1CbQG9VqQJm+mYin6pZXx/VdWMVIAPsRx/G3SNoaUc3h/96L5NGXSNwShD+ACrMyzi2Fd/y+50PJ5GOM6ZTGUc7GqM+8lfuOsWfGbwsuVwKb+uwKb2q2sk8ZbCsOw+F9PvhC/+YOfxgcefSx+/+EfxY82MVGmLXC87tDhIcPG2+gKzgAju6dsvAytW8BZ8HMnzyjUTO4aoi424WZvpoE89R+G4B6mIe1sHxXPs4qpthpAnKqa5rOZe30i+/tw7LmByyPXQuxC+khFJQpnkfpGQBnezyMJazgAQfwvv/MdplNlGWtxyVDjXBVsiXO4vOH2ebNpcahMhCQd9OjrCDcKgdyIofW5Zc/RhxfbryzDuT0r63TyXeddEMM6YJ6TOM1O+DLCftnlPVfu7ExsnWQJd1BxkVbOCtr/p8DIHOL6823Aws67aeLkuOaM2bmUzGeCEq/DCNA28m10Q64A7L+G6kB5rB4UXVfZyE7vVXt2ZBcoSsdzQypR9tJdx2aGIXl8ejAlDISB9K88iL/I5VRf4Hq6PQhEt6uHsM3ydN7s9RvXXV+oXUcK6WqFJxz/GFYI1d/+5EexDKFxZc91O5erO1Fjw+nvLxwxIj56NotLzUKgmhMpjVCNPSeJOFmVhqSWu4KQ27zcFYCzVR7TkdeZQ+4q+rXLr4x51NP7iXKFm2cHwsY8ZtyPHbOK62uKmR0kLedcjgn4qMiRCK/i6m6kFbxsZIa0rM1RaZsDhiwE+2HCC1s2sWKCvaz6TcI3gz3Gd1rLFJtP0IQYOYs3YmT8z+89HC+zDHsAmAbbXhyZM1MfF/D1nvlzYFApBBC0b9nkMJPhtmaY9V8efTRW0KLN4XqawtROy2V6Jt57zUX8LUpJOA5FzasAMIHzjgVnxN/dcl3c/dYb43eWzMVKxfBM467MowAcb35EPLiw6rr5c+ON06akFqoopli20B2sxOB9cN3a2O6kkfohNU8JO20Jggd0dRp4/xO7j0u53M4dB2rEqskMCIIIoQzaWf3t7KNb4R6+aiHmeI3hWNDNm54/7C9Yu3133J3zBq6t54wBbGrhJ2lQ412H4gOXXY7Oc+ae9Gn2gpHdSjWjljThj9fecGPYPdu3chPahhzN2KDbIbJEoY3HDi+frIRAHFh8SZgw7iNnnxl/fN3lceuMifGGSePiY9dcEX9z3dWUhYDkeJ/05hnQGYlXCCjwrsVL8+oZPzPMKHwHAT/duInpYVYSq13FuXFkSGxJLNyosyeFlE+Mwv3Ml6zcvjnrmgmO8WdIpUnALczwLfe3A9JoISD79sEqnhomyTy+RVznuj8FPLx2bayDIZ65zy4hZ9UOxUS+57J6d9lCtEEyzzaVVC0YkgJAkPR3LcO1hYOH41ur18catnflSIEoF1oZh8SXHvtpUbacyX4YABAvpk2KX10wO85FJU+kexjJ7N4M0l+NXfJ+rp47IgQWVDnr30QDo8n/tsWL47rJ03K6uZhLcJdUMcRcx4joOUYaLotnc8whNvnqoKsifCo5Azhh2lXrRtONHUKLbDxwsDFfUMT0/3dIQkA7YGt5L0aHDKsQkhGVExxeVVlFV1HVMysKwVJ4ykDDFCoY8shzz8dDTz7FzWbuWcBMJG44dsKItjExB0PsV6di2rlAc8D2bHmUb/588vBdwSFPtIyKr63cEA+w0umt96LUA9zvbd0Rf//0CwQgLGbVNmDV0p/E+TRL0ueOGVPen9HFmRmN094YR1cxf9JMC0g8eSlwzhfyOxWcoxcCcjIKHAB/+YypMZOuBmzIKm0KI9Uf43qMxaIXucyjLfOBiEvPbYqrza10Mr7qQrNsYDS+TWOtyFaxgc8WLtjeye6rzazYot9IX3rfdU3fUnHQTnq9xCaH7AvTKi6zNgEdNMBMWGaWedYHIn1n5cuxjh1LkkMVboSp7BauYlPHxZOYPGKlMVVrvWzf+9SwSPMFlpq9IdUh0yr66C88/WTEZOYecmgnkYngyvzzuKX8tjMXc8EkjuBiRNGWQ6/9tOplmxkSKuBpQJqodKlJ4HiymjJdT+k+HNfOmhlvnr8gtYAGYQvrBD20Uru4jRieD7L5dt/YkTHOrlXiplbyZeiuscIIeu3A28tzMzeD72Oo3K8CIb5yQxICNcHXH/0ZCPuGS6LzrAHM8CH/qQAJqyW+/SK3ma5dAUmLW4ANkzSSeS6HLt7GNW/RrTVNizFr1Vp47ePEixr+YO2qeGTdRqZ5gc31+N/ZwbKP07OuOdg6hbNvV9y5ZFEszqXiCgrGFgVvhzkvoF6/snpl/3XNFu7AD597Hm3RbXH9uEkxH+1lTLGOgTFIWqegX2CH1SuHdsc6tNYBV0KtRwoCzxNwhyvNCpzdGJsdzEa+jAG/lS6ng7iGIFhOWVxVzKCFoJjEifjh+lVUUEBAq/pSia0fjBOJyveX3paGFffX33sobz4plkXdHyCJuaeHFn3bvLkxogvDjtaWXM6TPP0BI8y1e8TpTx76QXyVSZv/xLx6MfQj2B4lW1933DB9WvzK3Jk5q2hZRXtkPyMluzfw41/9GkURI379OsPLOEcaaJnRaIRKP2SdybsfiisEX3/mmVhDV7MZDXioWbMcBV+4sqqp7OwWiuDKHiiygjPJtzL7uJnRkQtqXdCti+7O+trN6mWDTsiDch40WcvGjW6vV/PYeTNCg4IyyES0pqeXr45vPP8Chy/YgAm29hatvLQj5YvB5dNXsQbgMmzWpOgyjoYO0WzK3JC6HqPv4488GpvXrmeEgcIfwzpltUkF4vzONVfnDeS9DZgSR6a1xX3r18dyDOL80YUmPhRlKjJIlKOHbBwgxfazZ7Zvj10w2Fgp7USbJ4m/z+6iLWx9W2Pa0hYq4BTpGqTN5jtIWgvLkhRqsuzCb0cC13dyPM0YaNaaZZUkaxSYyWtfjVcB6ouHw1U7gOdXrwYaqk57QFcl65cwRZJj/jXfUZ4Ar7Vlo8l/vPfrsZF5AZdu84ZUko+gdU2BsO9eclbMZiEmK00F+68KeIqrY39PI23aDq/or7lNNXf6SLADHXHH4nPiikmjczavLYdqZCPKOUa3a/2vZx5HaBiapuazrCYnHCeFXI+QUnKdzTb/xP0M/7h6ZayFZvtAg9kVfqpnf17msSKlmkDzVo7P0gQqQrKoWrwET9uJAmR6vhtffldwfAJrG93M2j07i+njFAK7P2deBHykHmm01vPW3wWfM/mUsReAn/3O94rWUAOQ6U14Kp3qEWRf3rE7vv3UM7Hw4ouxDpgKoVW6c8gObjoa4qPnnxef/u5DMJj01a2offAo4DQMWfEWVxe+nAGkG2kZNTLet2gu43jmFImz77bOnu/bw7jrYSZyHndLfasLTxp8NodahX1VOHqYTNK6z7sELJe0B7rjjx5/Ln68dlNMYPZyH8PgA/y83hY2jyxXaLRJKpd2DR9kPdKBg2/yykDfa+U2cCjDUpjKd2mEc/v6yp0HclYSMzgNa3FvoyyLK1JBukw9wJ+iaIZqFL6KzN/fiEElsUucMlsFaQAYRwUPJr1CkIziCpzHn407lpwdS8Z53MSZAyvAkjPPG1l1W8RM3HJ+Ai9nL+s1s2DLkjiOAurlqtokIox+75wZcdHk8bl5VG2p66UL6aD8NUy43Lt8FQG2ICLSIC4JbcKGI9IhqeX7Q1xJH+vAeIYh9b2e1XTdw+5iFDOW3uTqrRLWU8DJNPPyKfiSiQ2ciSoifNZdHZfae6Y3B+sIlL+SqAVlWMIBz/wsw6DOQK4AmpMQUGf5Fme5DWuUUGQ0qEhafJ/MX0HrhachAPHv37Auvrd2FcNFj6h583dx9sjh4pJRo+LWMxfSt5f5eBztBCZ1664MY3HniuljYw5CJYhkEtfJtrKTyBwPMIS7f6MTY3QlDljdKNtcWVun6qPdls3TQ6jpFbyS8W5PF+IEbBFsgQ6FsF/NRTJdRYf6u2FZtpj1540vndXDO2zcgAZdxvJ3zsmZTUmX6wmvSH8MISgSmM+qr/L+oUbmspQiyan7W4Gt6mhNmEz5KiuC2xhXd7Cz2SPrbRBR1T2KFnv9zMlc3kB/Xa0p9IdNrcIZXX2zt2AymqTQyo7fu2mgnTmxtJZW+rnnX6TOFYlAqr/9BwkQZFKNdMaEsSPijfys7tRxLDJpjbvXQA3iiIFr7YtfZSU9gucycg5RK45UeDXXgeTJ/wbyJhwocd/Mm0B/JdPnR1IfeatSIrb9OAst09LLpRD8ZNmzhEEIkD/iSFTBNM8pcwBTtcoAOPTNx5+Il26+mf35E5g+Rsui4p13G4navHzipLhz9Nj44nYGQv3VplKtzbgZzomdl7Hg946fECMYFbTA5IN0HQep1OeffT6e3LmDXOCg2rb1itNRjjDXE5iEeu95Z/ETN3NjzthxsZmFsPvXboz/piCJ13gEldXLZKZlA6tXGyJh8l2Brp5VOTVeHElUj6ze+3kCqweNs4GNL45Kxpa9WkOgyrLqHO0HSoGzymw9W7b6CgCBzQj3C+FEAql5CpxlgDmLS//35+9mUoWRlxVTtxHvxPJU/v6LK65FMhyRV45EiZsU1PfjUpjb4zvcm7CSnb69GH3D2YzR3TIyHmae4k/ZtEpJZKcVq2WqOZEEJfAsoABMf3/zhDHxyfMviJsnTY4rafW3cdLoUxecHe9fOBuVReeFQZjCoo2iHwivAuKp+Usxk2hI+1hNfIkTUM6Y9ld0f22nQEA8qSckiGVr18ULtJpC5RXRp/1vxURbGUy6f+XKeASGvZWTRr22TOLbYdx48DxnVFtcA5H9BZVUu5WFZ39tPfyTT2ReuAnbJyeYGPZ+htZyFxc/MeCMZfsOxH9Z9gLUo5txd7N7G1MbIIE+q7x8pVNIWMv47auuirNp4aOhWBtd13DM2B6Gs3MVgEnMSXgAxTmI+oiggtH8FNdGOYl4maIR2Jyj/2+S76DMLuyQp7esj3MmnBVc4XBknaHMdUwhkJZ2B+t37oqdrrClGNXKS+u29n2qXisVbnnqqpxb74k//+IX440f+Y3goA1bzyROB7QahiC0xsdvuCbu+vJXi7RqjxQEWzLptG5Vu/wvfPmS8IfHt1asYrPrKiIVLuIcmaQtQOFeO6NLnEp4aqkUCGBzJP3WpYvi8slTYwzzAez3JQ/zcWimDjTIWLsB6ZRbzKSmeJcutQvvopMVNa6M95HlHAkqEkqQytXfq7C+zy44uIFRyfKO/TlTiVWSVUvylUmPCcWEVneDXYEWrnV4VZ2lg4QMpa/+8cYN8dArLzPzhur3l1F1IKkkXzxxbLzDkUKO1YnLfpyInFI2RSkYMjMpQBqfCZs4N3V4PZyTSrkCCWnsMrLbKMkkY7KL4CF8Do36vPOss3ORKCe3TY+G0pg+xPOADNag9GldFLzKG3S6HZq0G6Hej4bai7cKUq5u3pS1GwATcnShAVaztTpQk0cs5QHSn65gCSizmOD56rPPxHZVNGvDvbQk7/WRr+4dfP/F55COFyd0rG16GKwA+LD6xuVEEc+CHEaQVtIczwkQl3D5w5Lt7QsWxlVsdEl9kQLGoRTGZocQzRWs569iAaeAXctbQHl1/iJwwxVK+NhBt1rVssQmcehfCCS6nhwd9IvbOSHrKdzsz2RG5V+datRKaY1/4rcUnmRFsIuWWxxfhb/UyBmxS5jafdv8BUouhCcwta+tEKHR03LHsXo4eTz9tL8dkOsEVrRykgifmqIKI17mpvpXktAqfuf0eTs/QHFGzMamKDuNxKkFjeLK4xNo0GVOZGlYOrpIIRGuZMc3axqj6k5O2WTtNtKLxxCdWg23H4E86DG80tUZX3+v4o88oUcvyHdYYaUiJ3BOAJEjEE/ujQr1YOXe9+SznDksflfRCSQrId/Go/bexAGTYvZOhhLo9Cz94QxuFfvUNdfEl26/Nb58y1vi0xddzOQNouOOJsfz2S2Q3m3wFVXqOjMxJ6JiJIy9i+PmV86cVcw2UpbJXecAQuw81B0/2bwttmsIppYxVP8qO2jSTZcwnBHLSBtyP66qbp+oRFVeQ+jRWJZnzJhO60IQPOVjRaq6vOryQIHMGP7TE0/GiwcPMSNWINCiHSCuMObGubMx0piZc1yT0qEAd8S/ufyy+JeLFsWlqMYrYMzvnndhfIYhXDENXmoO0+fhj6qCfDe7LNL03XHb0qUxnXX7Yn6xSOiGEZeKn+IOhpVMdO1IYgnvGDCbyxjqN6CdPOu3COraixCMZEl9pCfIcc1s61cIlGbtbhfDh2Elz3OYMxK1kqd2klJA4qnXivb5ajjLYnZwC7j963+8O39QW/vQi9796chR4spRtJvYIpaHS7w8m6nbuy48J65GMEbw62yTWAgbQdW8HON2fpDy1vloDm5Wy67OyyWVmVQizaQi3PKNY3v4WVwrcuOZc5iw4p4h8DlEhOclDjOLuRKif3P1sjjc7mE4AFYMSoNQhEufwARY+WZBka794EFo3bESETMpZlyZPXuzChQ7tMZDpMmMVsaAa3/QjuKeeUWpEITCnrpq4ZmxYLSz66jW3CLDax1a/Z2o0+o07GjxD7z0Sjy1czfbqDhppMqH3C2o9FFQ/H3nXhBTRjI544URtPz3TJsTMyHAJAS5QtXnMIaeIxCK/DHuIxUvmNZfJdLOUAu0xh/f+UvZDahg1QVeV+EO6VbmAx5e+SI7iA/HDtYh3NuYQtAfvFMUhumZF1Z5aVVVQa0X3UzKn4VwXj9zTtpNhotS3R0lBCaoEtkovJvvsnnz4s6rLqfvlKiIyFG56iBP07sMoIXlOX67JoThL779HX5km2r1eKVLgbk8nU4Nfnvx+bTYjvj1BYvi6qkzigUiUJPXskwhf4WNIj/azAJRVWFRL7sYX49y4oAReP6UWXE+5SoA5eCT5YEudFELv/y6n7OQm2IbU8Qr+bbLqoM/CuapCKAAdxJlQVYQV+wD7olpzGNcOoGt81O906nAtxmfftlpxWz3KlkXb73/5zffcH1cO28BhC0NqYZKI+Gr4kDCCurtflD7X1u9Mh71Ojy2l3sFnPsAlPQJyMj7z1oSd50xN+6Yf2ZMhnFWVDlJ84EqKOA/23UgtnCuMkbQ3cngAjhPE/rd5EoBGUPZ6p5sVWWyHgwwxgHxw83r4yUIv95bVtxTAK4pnxUoQCezfFZF9lNUlfxI4irjkZg+b8JQhfPszWVrfiCFq4ZvnDQt3rP0nNRamqxptpbpqvz9CkFVnJEu1CgUczAK/+K3fydmj2AK1KVSzyLaR+oEerpdhZRPi4XowUjh+2w62SkBtO4dhim0jBkXo+o/ef2b48ZpU+kienKvX4Igm6OtvWiVzzz4EPkwllhzLyrhk1QmTJc5qg8yEs9Y+8e0dA+OKAimhRI5X/EKex6f4c7j5xWAHJpRmHbGSbsmPPqBJ0kotcAdLTQfrl3Clvu30BDOHzWimGHV6JVZjfqZoSBn8Vb7m5Xim/aBymMKlD317VR1Hrn/xz//zTh3HEMrx9hVa2mSrBqoU/uatKhVgnX+H72wOp5gtc7qua7UhobK4+i8n8deyAkMa4cRZrdmdk8ibYcvf/nTp9kyxiQqu5dzWloG87+YYubFulW+qoVp1AbQ469f4Fg6m05cZ2TekONkh+Onm9bHw9s3xz43sTCKGc6mwlHC1CXuxevp+OvEaGe5sNbGfMB5BPzKoiVxGYdmipOTNSY14WIjP8opVeLuU6XnSrtERAfEhTMmxYdvuTb+6L5vxJ6cmQNiqkkhD9VVFBpCvixLZpinJ57ftSO+tWp1nM9O4TkgXPTAxvMT9GoHwtJgQ4jdj+Tu4Qd37Ip/+8IyBMCZdAHZWhUj3v1M4RaGRiDfGegTJ4Nbx8R/f3xZvLRxVywcP5rNRPu5cqeVjZ2tsXMYawWmpw+wG7BBFfQRXgI3pISbwIvvY/4dRLrsc9CCLGidw60nb54zj+t+JqUxeAS0HBWHvu44P46p9OiKjMW2Cw5OoBL/6/0PxL/D5yndXLCRkINANuGVf7QrTsiVxMxZOyrGjWGPfuLjcQGzgaPVBG4WlbG0xrwQm0GcQuza3mbq8ns//FHcvWIl+RCCZAzJc7GmJFAlBKpOq+QClK1MTaDj0uoMM94bKDvRBVM4cDppEkvdDBc1YNNJdOITXhlUFlGQqkpXxg3mUeHbnJZixlPDM7lp7ZdnzY3bZ8+PxSx+jaK+YlG4Ev8mQTgSX6Xr8zRaL+Z6LAQIMYXZp9+9/bY4z5u2XEqVOBWBSHX6nZWBgBh8OSWL+vvKj3+MGmZG0b44W0WBhfTXLLRD8L6Ch9aujbvp04P1/z600FDQp1aAyb2YxjI77yggXEEQmENkXRqnpPFexakzWS6ewi+QuFuo4rJpSFsJQEXCzGxc9XKyT3CynLZO5go64upR4+KX5y6NRbn66S1m0qpyzUgU4dZ6SG4YlR9DDWaQ60uf+sN4w7wFhZwMGdKQiu0/sYKXxGyJv/r2/dzht49DmeX1cgpvg9BeNNXGHvzO+Cr9dhxmMaw2j34UcIUol5+BkQJOV6Eh7MGB3C7GUDnPDxKuNmJnk3cudpPW/YN9BOEo4KchAO03k19XuRKD8F1zF8dseUQd/BGBwQxQh8S6uhw5xb4I4+MPb7stFk7HULRlvtrO7qQcoezBAPyHBx7C6tfYr2FKSxQz2M6PR+yML6xdSR6Qz3w8m51BjjIq5rvwxITAn155SfzN1ZfHv7/yynjfZRcxb+bkMAsyTqI5GmBmzptZu8HJ01qvnmP7PVPYF8PJ9yxcwt3JU3P5IzUgdGgcVD0GQkMTAurmbwropDOjsLiKHTmfuPEG9l4w1KqGjI0CJf+rQBDLZaz/lSefiefYWdujQVhzru1vwX/en+3jkGYxfjeBuNW9+OJT7dPyWxGd0e3x79/AhpWzzoxb581hu9jC+NdLl8THr3tDET9pRIxvB2aagGX+FLvBvJPtFLhZ/FL9u6bNj6sYtTkcrtpA1RMdr4ghCUEdmFW0MA9tvOv8C+PXzl4C/dh4oo2QhKynPt3vIIK63szFE/c9/XTsRlDFrzpz5+8nfGv/nvje+g2EMiRMtW4KXLb4JkGQemoZoNzFFXq38uNV0xGWMewNmNx9KOZT3Pu9NYVfWPFXzvb4s39pWCbE0/iHgrU5FHq8DL8QQ/BGfirv1tmLYxZH7b28Kh3JBuuGJgQCLg0fxwK6YbS6ScyX/+Gd745fueQciOeaNW1PQppe+p5uZxmjYAgt4ourVnI55rY8f3eQ1rkXVbmWpeL/wD2EeRikFyHo0uADuTxMYivWC6T0GpwSc8T4eMe8M2Mh9ZtIFzF2JKekkXyJ5g3q103AMsqLtp02UsMgOHWfolgIU2PRSOGqPLmG5JL+lJ4zkS2xiO87JkyIj/DjHtOxeTz16KypwptvImqe4ziTnbBLnMgNSWMahtSn3vmeuGrJYuiBELilClQGg8QJI1BltN5uf2O9fPm6tfEY8waHs9vidwhoHfesWhGrdtuHU90cAZTUSQKVTBLX9ACTkTDq3ew3uJQfuHD7ikxuZS7An+Tx8BB7rRAI4QFEpqQTkeP5MulR6evhA7wnvsLvjhmsn1zFSOC2+UtjASMUeWB0IQTm9+3IlyEDuZMSggqoQMahns4cNio+ecttMYup2vwtwIqoleT7PB0uJ4XAIm2B3vi77z0Yr2CoOSJ4GRz+YeM66EbZMLAhmKaVakd5iOxCGdu0P3DZJTE9YZawSesQdDvP+xC0/MUV5iKKy6as2AACkJ2zcc2unr45bqBv1kfYHncxWuwWhqZnsVpa6q1+MlTw+4mqBZ0SIRCegJyevHnu/PjEDTcV07EOp2yhFS75LFpZ0eea8xS47Ne1RSgAJr3I9viH16zLW03veXpZLFu3mb4bwzVn++Bg9qlVh9ZUvrBYgj6TOZArxw3PvYtFB1Asv5j6JVrhAxu59CJtB2qel03JCmCnkxo1r8aoosoUJ/ZowSbpjSvZUPMuJoRucmUQwNZE8EdK9AcGi3+nfIh4PMRFwl/ovOvyKxgxvLlsfaBXGV+poisoSsSpcpSRFFAIfG+PT37tnvgO+/u+u9VDM0wM+etrFulkT8U8VXmzE0dg/Pobr8kLIh1iFasOVqOXH5zq4XKt9bGS08zb1HTZJaiMRUB4/cBsLuMEv13Fn8NP/tw8cVq8fc6CnMa3ZKt1Mk7xPaVOUsyAuL/L5ZPPbdsR3/jZYwgDaGpQphDwrNRjf0wYMjbCI5Nj/4q5MKeTK2l+5757aaUOXfFSyvjs73nmtziV4fVyIXYry7DajoIudEYvG0S4PJpW+NzuHbGuAScBkNCUuupZfPX9O1DcQOG13BRzJrusr+P6219liDqRKG0Vz2HpT8bJs1PrwMep+1kQ5X+89fa4Y+48+lesZ3YDFYyCwjIjGw7vVKHwJ4qGTACGlr5lOG/vbJ+9A7edxAHm9V1C1ed2M9KbpfISUGFML1L6tvjs939Y/JIKXy1cZesS2hrS3rNrWzzmTmWP8igI7B6KVmcirAdh5k/tIJyaM6yKzzJq6aqyG41CWPgUWhCFluxUi+u5wu+fLZgTs+nOEGuguV2s6A6K0vwrXB6V5/V4rsh7vFRDjO+GGZ1c4zaNNYZP3nprzJ0wGaRKIchRgxieRpf7Cmi/DBnZZ03ZMqmiSknc/K5wkHl6HSThIsy1XJH3Zw/9JL7LqOJRdiR/lzmCe7Zujrv5hbLV6k9WDguY1KsxUcTrqXKJDjjTNbkueRvnJG+fPS/OZel7DAJSbW4t2X5SpR5nFfGkYHOd3+E4wIme//mjx+IT37yHlloaiSpYVx5T8ivin1xZfXK7/SzH+oS611BtNMZuoUyFHDQablU8qj6dsqImyR8AJ+EIzjvymwR71DSj6YExFvNImSMN01X5zdxcH1vygMLWFNVAjjxqmNQCaq+2eANk+2dTFnLCanZMBl5xdb/VqSpk4TVnsZWr41eFNT0HgNKU6gQ/h6EJ/A2Huy6/KD52/RsLKLZSfd4qNggMT6RsRwESXxvEcwX70QYuAMkky07bhGf24+JQ9xZI9+VUMHx2n+IeflGFu2aKTSgyPtV9mUeYlW9IRB1e9S7cwTjSi6NCyY2sF3Ly622z2SY394yYQhXc1HoE3xo8sqS8+ay7gcJraU6rELTSd9FuYganc//gTTfHL196GX00DLGCrOidNlcZaT4lgkzUOLV1V0SSln0IWiOurTA31KL3h9n7Ig0zzyiYo92RcAVUy9MQgDrc2nuW5/fxHHDRMiqDC5iEehM/vn3XjNlxBrenuFZTgKnKPR6swcWfViEQBek1Ej8Jxv+rt78zzjmfqWU54akf6ag/nU74tKjgCtk0GnN69xiFirDX3bYyvew6A/v08rq7ce4tBudBIVz1NyQ/rpOhdTbwTRcwA2G7Ytzk+FVuVpvHkNfhaSc7uQbEXDCVr5dZhfkcwNVLHyDJyQYXRozGzWKun/+/3nJHLJkxjXorBGDmjFtlTbtRzrBGbfp7Hwo+MMMFLY6Kx07WEdOYKxk0EFGySPGA3CwWRTsaazKCwFG2xgRXQ/3XcZE9la/Cq2+evjbi86OophzQK3xqHB4ze/bHpa2H6QZmx9mj+RU2UcZ5rqLuatDL4DIk62CGeuqB3y3+NDsQk6D0c6PpT++YOzc+ftON0T4WNevWaKdzraSCkIQoa5Atkvfm55CwpdwUNpjp/QD7GS66rpEFlsIwEDxHFP6i6kjSKQiNEYCErnA88npkOEd8GX0U07Ms8+txaYxaR95T+D1d3RNLu/bFB1iVvWHiFLbLFfAcCrbntHfmzD8VpBJaGdH360jqgd9OvxBURhTMtK6juX/1fRddEp+86josb0LyelrVLMTOCZ9sFgNjPOQYiQJs1y34RfHgR6JSBo5FKxHVsWcxxrMP0e3t6Y6VqUySD8rKQuph9XcFnu+qHJKPVmOxsXUyz3fMWhRvHzs/xiMk/vpcprNofJWlDs33qsTi6SRS8W8wS0inXwgSbYqhAgq7I7cx1PejN98SH7r2jXS7BLRijftbQQPVsLnGQ/2WkE4iOUJwpOD8gYWlWue1mbfZ+ojnMG4eyW/gZZ5KSH0v8zbnPy5+ZYYy/yi2qHG8Ns5mP8YdnBa6/YwlHDDlSJt46Cy/9EMtymzHc6dfCMDCrt5KiJBrNxi6MZPa/N5NN8Xbzz2PQC1uGKQ8m6gclrmYAAAGmUlEQVT448vJu6olCcnRwS76dn4EI4dhBUZE1BkrAiV3vHIuf62UoBIvTzPyw/T4ZtL5XXlej+mA71CTgymOArguiy1inXnv0gfnLObu5mGcWSiKrJjuBdYEDcpVWDRjOFDmwaYbKP9xw2Ut7bwxNC+G2VwvwTBsCSdj/pBdy9cuWEwNqW5iT21l3Klwgqm88KSo3QHXyxU8rEhsIgqvWp5aw0Mp/oZibjwhXU780HuR1Ovg8hoaYTbgq10qb7iw9SXshG8ZpS8z+jmWruo2fnTjAwvPjnO5gMthtcnzPGEJRjpqmfh5qh1FnV7XB+n84I8Eov+HzHEuU8q/ddW1RYtLgivv+HpG6XgyLlURAIQpnzjNnC0xmW5A5cSNsv1llVmMYNKIJMx8+hIPX9MNhJfNu6yAVW3J8iF1GoLlM/NynJ7TTHPRULdNPSOuHjM+xmgok7eLZI1ySmhmGahIok7YnXYh0KRSsrP+fLjkkWJuGC1gPGu1d15yYfzxbW+B+BBAK97fHvR0k0JRXkCRejM5SMZmV1HH2uizC/AFe8Ml5AzU9iBM49NLDTZ5gEwy4xUGJ4GE7z7Jie6MsN35ja+7LIv0DUYbj69waHpORPVNV/0lDpSfNgVPpGMyo4+L+b2nu+bNjxtZF/CX4nsdzvJsI0873pz+cZbCZWNrNbB3Sak5NiGQa2BnjtPqKpQaRKK0smq8QTwEYQyP377mDfGp628hCOK7ZKb0mLnkE28DO9PoqmfxdeRvc7gCxq+65dmDKs7Rg94Rgb9cXhmTCohpcggnQQfwmcZ0Zdo0Ov3xiZbYbF2SF/4pKUJZM7EDbpk2k3uPFsY08rVaflmJqhQC0jXoWAWcwqewX1sHsWycU+D9R2+6Lu5iM0cxwUNgEq5Er/4+FIxlSh8HIBnr8vY+uwVbXqkFFMoxjgiYwzjKLqnYUn8KuPquFVIKQMaVXV8KfGoMGc3NIWiYy9kk+s5FS2MaPzlcHBhm+0pD2GrwTvPraycElVosOa3hM5tW+HvXXBcXz5jLUA6pcAVQdWwLqZ5DJohMqlWz6ipk/k62i3Ywd8Dxrbxx1FVCh4UuQCk8Q/F98CoYLbM9Je1dSiPt611GdxTEHsGrmT19/6LzY94wDEGuv08y5OxpqTYq2fI5VFfHexB5a9QZROpTmYTK9aIqtZm8q7ibI00HMMQunjolPvEWNqu6nduVu2QaBVd07Q+HilDNT9NWYdV74xtKafipDTDOYgTfTsuydFxw3wwn66gXtsMBtrQdsq8H9FQk641Yfe+aNS/ORwDcG5CVE6+6H6Doir8DRJ9Q8GsmBFbd610ccnWhMkVkGAQaRYt/6zlL48/e/ba4fOFCGEXLcTatoQkkQz9OAtZdRdBGcy4jC3MdgoOBsL2jUWGgdcYYzK+EU5G66Zl5CWvAqN6Pkc6+Tl2PFphDOReh7j+0aHHcMWNWTAK3EQhBFikB8I3eoIH/kUo1lXIkovmtypuAmyOP/j6tm0qOLq5vCKRJJ67SwIlO94H6yyaOw59iV8+Xn30iPvu9B2LvLgw5j5Cx175InVkH+NNce7+bwhQCC7WrcT5g6eJo4Ycsz2DZO3UBFLcVF879hcX8gN8Krrge2xU/YD2R+Y+pdAVTeS4dNibesnBpXM0J5unswbP4vD4mOV9CS9gVZAWk+FeF9HkqFbVqVUIi3KG411QI+kdU4habJ/fSUvztgXWcAbjvqcfioSeejUPMoFS7f/vPP7jQosW1MIPciRkwKi688Hzmhxik5fY3yyiOsiElCGWh1pPIEL16Hq8kFcZwmD9nzMS46Ix5cRZ2wHQyjVD6BWL33+z+txAULczLF9UG/pAkCjuF3WcHhMv7J5oJN8hvG02t4WQuj2sZRmeA1qblMXJoy0mNvsyut3v5N1hnO3YRyDG+GqaHMvzl9l7OZLRyuUYKQx1YTQgUwzq+R2kFEakl8LMZt8FoBfH6OXNHWrr149qJrNgIalsQslbrE8C8/9wteV7CK3wdPpYykNAdTaarZVSL1IWiTNF4mLRKnk+BlEPOjONPr79/oKsSFl99gmT6q+F+7rqDvsT1q/D+PpH6sxCFEydOfy1DPifEqvA6+GYhKOOqpP0xqV5G/kCH2iaFgBgzVvCrZ39AMqwqvJ6glqmBeBHvZ3OOOi51KPX3n0NNUEdP202qqawVAnWB/tS6inhJXjryxk0jRmjdJ2n7sn0wxDVHYfPZppkQqkD5tLAaP/l6zdz/D8g/MyeVsay5AAAAAElFTkSuQmCC;" parent="1" vertex="1">
          <mxGeometry x="627.44" y="370.5" width="53.12" height="49" as="geometry" />
        </mxCell>
        <mxCell id="Cynykqa9UGgM5TXmkAhV-10" value="webtools" style="aspect=fixed;sketch=0;html=1;dashed=0;whitespace=wrap;verticalLabelPosition=bottom;verticalAlign=top;fillColor=#2875E2;strokeColor=#ffffff;points=[[0.005,0.63,0],[0.1,0.2,0],[0.9,0.2,0],[0.5,0,0],[0.995,0.63,0],[0.72,0.99,0],[0.5,1,0],[0.28,0.99,0]];shape=mxgraph.kubernetes.icon2;kubernetesLabel=1;prIcon=pod" parent="1" vertex="1">
          <mxGeometry x="824" y="265.99" width="50" height="48" as="geometry" />
        </mxCell>
      </root>
    </mxGraphModel>
  </diagram>
  <diagram id="F017iKOntaD8TKKw53Ah" name="PÃ¡gina-2">
    <mxGraphModel dx="1695" dy="1188" grid="0" gridSize="10" guides="1" tooltips="1" connect="1" arrows="1" fold="1" page="0" pageScale="1" pageWidth="827" pageHeight="1169" math="0" shadow="0">
      <root>
        <mxCell id="0" />
        <mxCell id="1" parent="0" />
        <mxCell id="euB9l1kwpVw14bT5RPOX-1" value="ATENEA-BATCH" style="swimlane;startSize=20;horizontal=1;childLayout=flowLayout;flowOrientation=north;resizable=0;interRankCellSpacing=50;containerType=tree;fontSize=12;" vertex="1" parent="1">
          <mxGeometry x="-28" y="-14" width="824" height="373" as="geometry" />
        </mxCell>
        <mxCell id="euB9l1kwpVw14bT5RPOX-2" value="API" style="whiteSpace=wrap;html=1;" vertex="1" parent="euB9l1kwpVw14bT5RPOX-1">
          <mxGeometry x="422.50393185185186" y="40" width="100" height="40" as="geometry" />
        </mxCell>
        <mxCell id="euB9l1kwpVw14bT5RPOX-5" value="Worker Pool" style="whiteSpace=wrap;html=1;" vertex="1" parent="euB9l1kwpVw14bT5RPOX-1">
          <mxGeometry x="422.50393185185186" y="130" width="100" height="41" as="geometry" />
        </mxCell>
        <mxCell id="euB9l1kwpVw14bT5RPOX-6" value="" style="html=1;rounded=1;curved=0;sourcePerimeterSpacing=0;targetPerimeterSpacing=0;startSize=6;endSize=6;fontSize=12;noEdgeStyle=1;orthogonal=1;" edge="1" parent="euB9l1kwpVw14bT5RPOX-1" source="euB9l1kwpVw14bT5RPOX-2" target="euB9l1kwpVw14bT5RPOX-5">
          <mxGeometry relative="1" as="geometry">
            <Array as="points">
              <mxPoint x="472.50393185185186" y="92" />
              <mxPoint x="472.50393185185186" y="118" />
            </Array>
          </mxGeometry>
        </mxCell>
        <mxCell id="euB9l1kwpVw14bT5RPOX-38" value="" style="html=1;rounded=1;curved=0;sourcePerimeterSpacing=0;targetPerimeterSpacing=0;startSize=6;endSize=6;fontSize=12;noEdgeStyle=1;orthogonal=1;" edge="1" target="euB9l1kwpVw14bT5RPOX-39" source="euB9l1kwpVw14bT5RPOX-5" parent="euB9l1kwpVw14bT5RPOX-1">
          <mxGeometry relative="1" as="geometry">
            <mxPoint x="457.5" y="1066" as="sourcePoint" />
            <Array as="points">
              <mxPoint x="450.00393185185186" y="183" />
              <mxPoint x="342.3543288888889" y="209" />
            </Array>
          </mxGeometry>
        </mxCell>
        <mxCell id="euB9l1kwpVw14bT5RPOX-39" value="Task Scheduler" style="whiteSpace=wrap;html=1;" vertex="1" parent="euB9l1kwpVw14bT5RPOX-1">
          <mxGeometry x="292.3543288888889" y="221" width="100" height="41" as="geometry" />
        </mxCell>
        <mxCell id="euB9l1kwpVw14bT5RPOX-40" value="" style="html=1;rounded=1;curved=0;sourcePerimeterSpacing=0;targetPerimeterSpacing=0;startSize=6;endSize=6;fontSize=12;noEdgeStyle=1;orthogonal=1;" edge="1" target="euB9l1kwpVw14bT5RPOX-41" source="euB9l1kwpVw14bT5RPOX-5" parent="euB9l1kwpVw14bT5RPOX-1">
          <mxGeometry relative="1" as="geometry">
            <mxPoint x="417.5" y="986" as="sourcePoint" />
            <Array as="points">
              <mxPoint x="495.00393185185186" y="183" />
              <mxPoint x="604.3858222222223" y="209" />
            </Array>
          </mxGeometry>
        </mxCell>
        <mxCell id="euB9l1kwpVw14bT5RPOX-41" value="Prosses" style="whiteSpace=wrap;html=1;" vertex="1" parent="euB9l1kwpVw14bT5RPOX-1">
          <mxGeometry x="554.3858222222223" y="221" width="100" height="41" as="geometry" />
        </mxCell>
        <mxCell id="euB9l1kwpVw14bT5RPOX-42" value="" style="html=1;rounded=1;curved=0;sourcePerimeterSpacing=0;targetPerimeterSpacing=0;startSize=6;endSize=6;fontSize=12;noEdgeStyle=1;orthogonal=1;" edge="1" target="euB9l1kwpVw14bT5RPOX-43" source="euB9l1kwpVw14bT5RPOX-39" parent="euB9l1kwpVw14bT5RPOX-1">
          <mxGeometry relative="1" as="geometry">
            <mxPoint x="400.5" y="957" as="sourcePoint" />
            <Array as="points">
              <mxPoint x="308.6043288888889" y="274" />
              <mxPoint x="83" y="300" />
            </Array>
          </mxGeometry>
        </mxCell>
        <mxCell id="euB9l1kwpVw14bT5RPOX-43" value="updateAkamaiHealth" style="whiteSpace=wrap;html=1;" vertex="1" parent="euB9l1kwpVw14bT5RPOX-1">
          <mxGeometry x="20" y="312" width="126" height="41" as="geometry" />
        </mxCell>
        <mxCell id="euB9l1kwpVw14bT5RPOX-44" value="" style="html=1;rounded=1;curved=0;sourcePerimeterSpacing=0;targetPerimeterSpacing=0;startSize=6;endSize=6;fontSize=12;noEdgeStyle=1;orthogonal=1;" edge="1" target="euB9l1kwpVw14bT5RPOX-45" source="euB9l1kwpVw14bT5RPOX-39" parent="euB9l1kwpVw14bT5RPOX-1">
          <mxGeometry relative="1" as="geometry">
            <mxPoint x="360.5" y="877" as="sourcePoint" />
            <Array as="points">
              <mxPoint x="331.1043288888889" y="276" />
              <mxPoint x="235.25" y="300" />
            </Array>
          </mxGeometry>
        </mxCell>
        <mxCell id="euB9l1kwpVw14bT5RPOX-45" value="updateAlarmsV2" style="whiteSpace=wrap;html=1;" vertex="1" parent="euB9l1kwpVw14bT5RPOX-1">
          <mxGeometry x="176" y="312" width="118.5" height="41" as="geometry" />
        </mxCell>
        <mxCell id="euB9l1kwpVw14bT5RPOX-46" value="" style="html=1;rounded=1;curved=0;sourcePerimeterSpacing=0;targetPerimeterSpacing=0;startSize=6;endSize=6;fontSize=12;noEdgeStyle=1;orthogonal=1;" edge="1" target="euB9l1kwpVw14bT5RPOX-47" source="euB9l1kwpVw14bT5RPOX-39" parent="euB9l1kwpVw14bT5RPOX-1">
          <mxGeometry relative="1" as="geometry">
            <mxPoint x="331.5" y="797" as="sourcePoint" />
            <Array as="points">
              <mxPoint x="353.6043288888889" y="276" />
              <mxPoint x="385.25" y="300" />
            </Array>
          </mxGeometry>
        </mxCell>
        <mxCell id="euB9l1kwpVw14bT5RPOX-47" value="updateAWSHealth" style="whiteSpace=wrap;html=1;" vertex="1" parent="euB9l1kwpVw14bT5RPOX-1">
          <mxGeometry x="324.5" y="312" width="121.5" height="41" as="geometry" />
        </mxCell>
        <mxCell id="euB9l1kwpVw14bT5RPOX-48" value="" style="html=1;rounded=1;curved=0;sourcePerimeterSpacing=0;targetPerimeterSpacing=0;startSize=6;endSize=6;fontSize=12;noEdgeStyle=1;orthogonal=1;" edge="1" target="euB9l1kwpVw14bT5RPOX-49" source="euB9l1kwpVw14bT5RPOX-39" parent="euB9l1kwpVw14bT5RPOX-1">
          <mxGeometry relative="1" as="geometry">
            <mxPoint x="367.5" y="717" as="sourcePoint" />
            <Array as="points">
              <mxPoint x="376.1043288888889" y="274" />
              <mxPoint x="559" y="300" />
            </Array>
          </mxGeometry>
        </mxCell>
        <mxCell id="euB9l1kwpVw14bT5RPOX-49" value="updateTechnicalAlarmsV2" style="whiteSpace=wrap;html=1;" vertex="1" parent="euB9l1kwpVw14bT5RPOX-1">
          <mxGeometry x="476" y="312" width="166" height="41" as="geometry" />
        </mxCell>
        <mxCell id="euB9l1kwpVw14bT5RPOX-50" value="" style="html=1;rounded=1;curved=0;sourcePerimeterSpacing=0;targetPerimeterSpacing=0;startSize=6;endSize=6;fontSize=12;noEdgeStyle=1;orthogonal=1;" edge="1" target="euB9l1kwpVw14bT5RPOX-51" source="euB9l1kwpVw14bT5RPOX-41" parent="euB9l1kwpVw14bT5RPOX-1">
          <mxGeometry relative="1" as="geometry">
            <mxPoint x="448.5" y="637" as="sourcePoint" />
            <Array as="points">
              <mxPoint x="604.3858222222223" y="274" />
              <mxPoint x="738" y="300" />
            </Array>
          </mxGeometry>
        </mxCell>
        <mxCell id="euB9l1kwpVw14bT5RPOX-51" value="importVDCFrromCsv" style="whiteSpace=wrap;html=1;" vertex="1" parent="euB9l1kwpVw14bT5RPOX-1">
          <mxGeometry x="672" y="312" width="132" height="41" as="geometry" />
        </mxCell>
      </root>
    </mxGraphModel>
  </diagram>
</mxfile>
